<?xml version="1.0" encoding="UTF-8"?>
<svg xmlns="http://www.w3.org/2000/svg" xmlns:xlink="http://www.w3.org/1999/xlink" version="1.1" viewBox="0 0 1851.9 1189.3">
  <!-- Generator: Adobe Illustrator 29.2.1, SVG Export Plug-In . SVG Version: 2.1.0 Build 116)  -->
  <defs>
    <style>
      .st0 {
        fill: url(#linear-gradient1);
      }

      .st1 {
        fill: url(#linear-gradient);
      }

      .st2, .st3, .st4 {
        isolation: isolate;
      }

      .st3 {
        fill: #ccc;
        opacity: .8;
        stroke: #fff;
        stroke-width: .5px;
      }

      .st4 {
        fill: #f4cb3d;
        opacity: .6;
      }

      .st5 {
        fill: #fff200;
      }

#PA, #PA_stroke {
  opacity: 0;
  animation: hideshow 10s 1.5s ease infinite;
}
#TX_1, #TX_2, #TX_1_stroke, #TX_2_stroke {
  opacity: 0;
  animation: hideshow 10s 1.5s ease infinite;
}
#TX_3, #TX_3_stroke {
  opacity: 0;
  animation: hideshow 10s 1.5s ease infinite;
}

@keyframes hideshow {
  0% { opacity: 0; }
  10% { opacity: .25; }
  15% { opacity: .5; }
  25% { opacity: .75; }
  50% { opacity: .75; }
  75% { opacity: .5; }
  85% { opacity: .25; }
  100% { opacity: 0; }
}




    </style>
    <linearGradient id="linear-gradient" x1="6.8" y1="594.2" x2="1139.4" y2="594.2" gradientUnits="userSpaceOnUse">
      <stop offset="0" stop-color="#fff"/>
      <stop offset=".1" stop-color="#fff" stop-opacity="1"/>
      <stop offset=".2" stop-color="#fff" stop-opacity=".9"/>
      <stop offset=".4" stop-color="#fff" stop-opacity=".8"/>
      <stop offset=".4" stop-color="#fff" stop-opacity=".8"/>
      <stop offset=".5" stop-color="#fff" stop-opacity=".8"/>
      <stop offset=".6" stop-color="#fff" stop-opacity=".7"/>
      <stop offset=".7" stop-color="#fff" stop-opacity=".5"/>
      <stop offset=".8" stop-color="#fff" stop-opacity=".3"/>
      <stop offset="1" stop-color="#fff" stop-opacity="0"/>
    </linearGradient>
    <linearGradient id="linear-gradient1" x1="345.4" y1="151.9" x2="819.1" y2="625.6" gradientUnits="userSpaceOnUse">
      <stop offset="0" stop-color="#fff"/>
      <stop offset=".1" stop-color="#fff" stop-opacity="1"/>
      <stop offset=".2" stop-color="#fff" stop-opacity=".9"/>
      <stop offset=".4" stop-color="#fff" stop-opacity=".8"/>
      <stop offset=".4" stop-color="#fff" stop-opacity=".8"/>
      <stop offset=".4" stop-color="#fff" stop-opacity=".8"/>
      <stop offset=".5" stop-color="#fff" stop-opacity=".7"/>
      <stop offset=".6" stop-color="#fff" stop-opacity=".5"/>
      <stop offset=".7" stop-color="#fff" stop-opacity=".3"/>
      <stop offset=".8" stop-color="#fff" stop-opacity="0"/>
    </linearGradient>
  </defs>
  <g id="map">
    <g id="map1" data-name="map">
      <path class="st3" d="M924.7,1029.5h0c0,0,0,0,0,0ZM920.5,1034.5l-6.2,10.5-3.1,8-.4,3.5,1.2-2.4h0c0,.1,3.9-9.8,3.9-9.8l7.1-11.5-2.6,1.7ZM911.7,1074.5l-1-16.3-.8,4v11.6l4.7,20.4,3,9,.5-1.9v-.2c0,0-1.2-5.8-1.2-5.8l-5.2-20.8ZM928.9,1020.7l-2.9,4.2-.3,1.3-1.8,3.3h.8l3.3-4.6,3-3-.6-1.8-1.5.6ZM945.4,1011.6l-2.4.3-5.9,4.2-2.7,1.1-1.7,2.2,1.3-.2h-.1s8.1-5,8.1-5l4.8-2.5.4-1.8-.5.2-1.3,1.5ZM1002.4,972.4l-7.8,6.4,1.8-.4h0c0,0,6.3-4.5,6.3-4.5l3.4-3.6h-2.1l-1.6,2.1ZM1236.2,921.4l-1.8.7,1,.2,4.6-.3,3-1.1-1.4-.7-5.4,1.2ZM1243,920.9h0s0,0,0,0h0ZM207.1,712.1l-1.1-1.5-4.8-3.8-.6.4v1.3l1.7.6.4.7.2,2.4.4,1.8,2.6.5,2.3,1-.9-3.3h-.2ZM148.3,668.3l-.3-.6-1.7.3-1.2.7,2.6,1.1,1.8.4h0c0-.1-1.1-1.9-1.1-1.9ZM157.3,672.2l-6-1.1,1.7,4.5,1.6,1.1h2.5c0-.1,2.5-1.7,2.5-1.7l-.2-.5-2.1-2.3ZM167.3,706.3l-1.7-.3.5,2.4,1.9.9,1.5.3h0v-.6l-.8-2-1.5-.7ZM197.7,727.6l-.9-3.3-1.3.6,1.3,3.5.9,4.3s1.9,1.4,1.9,1.5h2c0,0-.9-1.2-.9-1.2l-3-5.4ZM170,675.6l-6.1-3.8h-.1l-1.3.2.5,1.6-.2,1.5,2.2,1.7,8.5.6.7-.7-.4-1.1h-3.8ZM1552.1,1084.3l-2.3,2.3.3,2.6-1.4,2.5-1.7,1.6-.6,2.1-2.2,4.6-.5,2.1,6.1-9h0l3.2-9.2-.8.4ZM1517.7,1117.8l-4-2.1v.7l2,2.5.2,1.2.6.2,1-1h0s.5-.8.5-.8l-.2-.7ZM1510.1,1120.8l-1.5-1.7-.2,2.6-1.7,1.9,2.4-.8h0l1.2-.8-.2-1.2ZM1535,1109.4s-.2.4-.3.5h.8c0,0,1.4-.9,1.4-.9v-.6l-.6-.4-1.3,1.4ZM1542.1,1103l-1.2,2,1-.4h0l.7-1.6h-.4ZM1524.6,1115.7l1.9.4,1.5-1.3h0c0,0,2-.7,2-.7l2-1.7-5.6,2-1.8,1.3ZM1475.8,1049.3l-2.8-2.6,1,2.6,1.7,1.2,2.8.4.9-1.1h-2.7l-.9-.5ZM1500.2,1126l.2.6.9-.2h0c0,0,1.6-.6,1.6-.6,0,0,0-.9,0-.8h-1.1l-1.5,1ZM1532.8,989.5l-2.3-4.4-1.9-2,3.6,8,6,10.2,4.6,6.4-1.1-2.9h0c0,0-8.9-15.3-8.9-15.3ZM1358.7,932.4l-4.1,2.6-1.8-.2-2.4.5,4,.6,3.4-1.9,5.6-4.4-2.6.9-2.1,1.9ZM1479.5,1049.8h.2v-.2s-.2.2-.2.2ZM1477.3,1045.8h0c0,.1-2.1-4.3-2.1-4.3l-2-1.2,1.9,4.2,2.5,3.7-.3-2.4ZM1484.6,817.1v.3c0,0,1,.3,1,.3l-1-.6ZM1472.7,862.8h0s0,0,0,0ZM1470.9,866.1l.6,3.4,1.2,3.4v-10.1l-.9,1.1-.9,2.2ZM1207.5,425h0c0,0,.7,0,.7,0h-.7ZM1215.5,931.3l1.8,5.1-.5,6.3.9-1.4h0c0,0,0-5.1,0-5.1l-.7-2.7-1.6-2.2ZM1112.4,956.6l-2.9-1.7h-1.8l-2.9,1.5.4,1.5,6.1,3.3,1.3-.7h.1s1.1-1.6,1.1-1.6l.2-1.1-.5-.7-1.1-.5ZM1203.9,927.6l-3.1,2.6-.3.7-.7.7s-.8.5-1,.6h2.5l1.8.8-.3-1.9h-.1s.4-1.7.4-1.7l.8-1.8ZM1215.3,944.6l-1.3,2.3v.8l1.8-2.3h0s.5-1.7.5-1.7l-.9.9ZM1743.8,368.2l.2.9v2l-.6.6-4,2.4h5.6l2.1-1.3h.1l-.6-1.2-2.8-3.4ZM1726.3,370.9l-1.6.8-1.7,3.6-1.9,1.1,1.6.9,7.5-4.2h0s-.9-1.3-.9-1.3l-3.1-.9ZM1723.1,365.6l.2,2,.6.8,4.6-3.4,1.7-2.4,9.5-4.9,2-.9h1.2v-1.4l-1.3-3.7-2.8-5.7-5.1-3.4-1.7-.3-1.3.2-1,.7.4.7,1.6,1.1.4-1.3,2.2.7,1.2,1.8,3.7,3.5.7,1.7-3.2,3.3-4.2,3h-4.2l-3.1-1.1-2.5-5-3.7-1v-1.4l.6-1-5.6-6.4s-2.7-.7-2.7-.6h-5.6l-1.8-.8,2.2-4.9,1-3,.5-2.5,2.1-1.3,2.1-2.6,1.3-.7v-1.1l-.8-.7-.9.2s-1.1.7-1.1.8h-1.2l-1.9-1.7-1.1-1.9-1.3-1.8v-2.2l-.3.7-3.4.8-1.3.8-2.4,2.6-1.6,1.2-2.1,3.9-2.2,1.8-4.1,1-4.1,1-4.1,1-4.1,1-4.1,1-4.2,1-4.2,1-4.2.9-2.9.6-2.9.6-2.9.6-2.9.6-2.9.6-2.9.6-2.9.6-2.6.5v-.4h-.5s-1.3-2.3-1.4-2.3v-2.1l-.7-2.8-.9-3.6-.9-4-1.3-5.4-.9-3.6-.8-3.3-1.1-4.5-2.3-2.1-.7-.2h.2c0-.1.8,0,.8,0l2.3,2.1,1.1,4.5.8,3.3.8,3.6,1.3,5.4.9,4,.9,3.6s.7,2.8.8,2.8v2.1l1.4,2.2,2.9-.6,2.9-.6,2.9-.6,2.9-.6,2.9-.6,2.9-.7,2.9-.6,2.6-.5-.7-1.1-2.3-2.1-.7-.9-.2-1.2v-3.4l.4-1.2.2-2-.9-7.6-.2-4.5-1.4-7.9v-2.4l.3-1.6.2-4,1.3-3.6.4-4,.8-3.6s-.2-2-.1-2v-4.4l-1.1-7.5.5-1.4.3-.2-.5,1.4s1,7.5.9,7.5v4.4l.3,2-.8,3.6-.4,4-1.3,3.6-.2,4-.4,1.6v2.4l1.4,7.9.2,4.5.9,7.6-.2,2-.4,1.2v3.4l.2,1.2.7.9,2.3,2.1.9,1.3,4.2-1,4.1-.9,4.2-1,4.1-1,4.2-1,4.1-1,4.2-1,4.1-1,2.2-1.8,2.1-3.9,1.6-1.2,2.4-2.7,1.3-.8,3.4-.8s.1-2.7,0-2.7v-5.4l-.5.2-3.3-3-1.3-2.8-3.6-2.8-1.7-2.1-1.1-2.6-.7-2.9-1.4-4.3-1.4-4.3-1.4-4.3-1.4-4.3-1.4-4.3-1.5-4.3-1.4-4.3-1.5-4.3-1.4-4.3-1.4-4.3-1.4-4.3-1.4-4.3-1.4-4.3-1.4-4.3-1.4-4.3-1.3-3.8-1,1.6-1.8.6-3.8-.2-1.6,4.2-.6,8.3-.2.9,1.5,3-1.6,6.2.5,1.7,2.7,4.3.2,1.1-.3.7v2.2l-.5,1.5-.9,1.6-3.2,4.1-1,1.1h-.2c0,.1.9-.9.9-.9l3.2-4.1.9-1.6.5-1.5v-2.2l.3-.7-.2-1.1-2.7-4.3-.5-1.7,1.6-6.2-1.5-3,.2-.9-11.6,3.2-11.6,3.1-11.6,3.1-11.6,3-4.8,1.2.9,2.6.2,3.2,1.3,3.2,1.1,7.2,3.2,5,.5,3.7,1,3.9v1l-.8,2.6-.2,2.4v2.4l.4,1.4,2.8,6.1.9,2.8.4,1.7.3,5.6.3,1.5.4.3h.1,0c0,.1-.4.1-.4.1l-.4-.3-.3-1.5-.3-5.6-.4-1.7-.9-2.8-2.8-6.1-.5-1.4v-2.4l.3-2.4.9-2.6v-1l-1.1-3.9-.5-3.7-3.2-5-1.1-7.2-1.3-3.2-.2-3.2-.9-2.6-6.9,1.7-11.7,2.9-11.7,2.9-6.5,1.6-1.3.3-1.5.5-2.7.4-3.6,2.3-4.5,4-5.1,6.5s-8.6,13.5-8.7,13.5v.3l.4.2.5.9-.2,1.3-.9,1.6-9.7,11.1-2.6,3.8,1.6,1.5.3.7.7-.3,2.1-2h.7l.4.3.4.9-.7,1.9.6.3,2-.9h.9l-.5,1.4-.9,1.1v.8l-1.1,2.4-.6.6-.5-.2v-1l-1.2,1.3v.8l1,.6.9,1.1.8,1.5,1,3.4.5.6.2.3v1.2l.4.7v.9l-.6,1.1-1.5.9-2.5.6-2.6,1.7-2.6,2.8-1.7,2.4-.8,2-.7.9-.6-.2-3.9,2.3-1.3,1.3-.2.9-.3.2-.5-.5-3.1.2-5.6.9-4.3,1.2s-3,1.5-3,1.6h-2.9l-2.8-1.3-4.1-.6-10.1.5-8.2,1.9-6.5,2.4-10,5.1h0v.3l1.1,6.9,4.9.5.5.4v.8h-2.1l-.6.6v1.1l.4.8.7.3h.9l.3-.8.5,1.8,1.5,2.3s.8,1.9.9,1.9v1.5l-.9,1.6-2,1.7-1.6,2.4-1.3,3.1-2.1,2.7-2.8,2.3-2.6,2.7-2.4,3.2-5,4.7-1.5,1.3v.4s-8.3,6.7-8.3,6.7l-1.3,1-1.1,1-2.3,1.8-2.2,1.8-5.2,3v.6c.1,0-9.5,5.5-9.5,5.5l-9.9,6.7-5.9,5-4.9,5.9-2.4,1.9-2.8.9-4.5.4-4.6,1.3-4.6,2.2-3,1.7-1.3,1.1s-1.3.4-1.3.3h-1.4l-3.9-1.9-.3.2-.6.3h-2.2l-2.4.3-2,1.2-2,.4-2.1-.3,1.6-1.1s7.9-3,7.8-3v-.3l-3.1-.6-1-.8-.7.2-.4,1.2-1,.7h-1.6l-1.7-.6-1.8-1.3-5.6-1.7-1.6-1.1-2-.6h-2.8s-.3-.4-.4-.7l.2-.2.3-.9,1.7-4.9,1.1-1.9.5-.6h.7l.3-.5-.2-1,.2-.6,1.3-1.9.7-1-.5-1.3v-2.6l.5-3.4.8-2.5.5.2.3-.9,1.9-1.6,3.7-2.7,3-4.9,2.6-3,2.6-3.1,1-4.9.4-11.5-.6-.8-1.1-1.6-2.8-7.7-4.5-13.9-3.3-8.5-2-3.2-2.5-2.3-2.9-1.4-2.1-.5-1.3.4-2,1.8-3.9,1.8-1.5,1.1-.8,1.3-1,.8s-1.3.4-1.4.4v.3s1.1.3,1.2.3v1.1l-2.1,5.2-.5,1.2-1.6.6-1.2,1.1-1.1,2.6-1.3.8h-2l-3.5-1-2.2-1.2-.9-1.4-.3-1.8.3-2.2-.3-1.7.8-3.7,1.5-1.5,2.4-.6s1.3-.7,1.4-.7v-.9l.7-.7,1.2-.5.7-2.4.3-4.2.7-2.4.7-.5h.8v.5l2.4-3,.8-2-.2-1.9-.5-5.5-.2-3.6.2-1.7-.7-4.1-1.3-3.3-3.6-3.3-.7-1.2v-1.3l.4-1.5,1.3-.5,2.6.7.4-.3-.8-.5-.6-1.2-.4-1.8s-.5-1-.5-1.1h-.5l-1.6-1.9-.3-1.1v-1l-.7-1-2-1.3-3.5-1.2-8.3-2.1-1.6-1s-2-.4-2-.3h-2.5l-1.7-.7-.9-1.6-1.3-1.4-1.7-1.1-2.5-.6h-3.3l-3.6-1-3.9-2-2-.5-.9.9-1.7.5h-2.5l-.8.4.9.9-.4,1.6-1.7,2.3-.9,2.2v2.2l.5,1.8,1.1,1.5,1.5.9,1.9.3.5.6-1,.9-1.8.7-2.7.4-2.6,1.2-2.6,2-1.4,1.7s-.2,1.4,0,1.4v2l.9,4.7v1.9l-.8,3.5-1.1,4.6-1.5,3s-.4-.3-.3-.3v-1.4l1.1-4.6v-1.9l-.3-1h-.5l-.5.9-.5,1.9v1s.4.1.3.1v1.3l-.7,2.4-.8.6s-.9-1.3-1-1.3v-1.8l.8-3.7-.5-.6s.4-2.3.5-2.3v-1.7s-.5-1.6-.4-1.6v-1.6l.7-1.5-.3-.4-1.4.7-1.8,2.9-2.2,5-1.9,2.3-1.6-.4-1.2.5-.8,1.5-.9.9h-1.1s-.4,1.7-.3,1.7v3.3l-.9,2-3.1,1.5-.5.9v1.2l.7,1.5.4,3.2v4.8l-.6,4.3-1.3,3.8-1.5,3.1-2.6,4.2v.8l1.8,2.9.9,2.2.8,4.5v.7l-2.3,5.9v.8l4.1,9,3.5,6.4.4.7,1.1,2.6,2.1,5,1.4,5.1.6,5.1.2,5-.3,4.9-.7,4.7-1.1,4.5-1.3,3.6-2.8,6.1-1.3,4-1.4,3.3-1.5,2.5-3,3-1.4,1h-1.1c0,.1-6,4.4-6,4.4l-2.5,1.2-2.8.7h-3.1l-1.8-.4-.5-.9h-.7l-1-.5-1.2-.9v-.3s-1.2-1.4-1.2-1.4l-1.7-3.6-2-5.6-1.6-3.3-1.3-1-1.2-1.6-1.1-2.2-.9-5.2-.5-6.2-3.1.2-13.5,1.1-13.5,1-13.5.9-13.5.9-13.5.8-13.8.7,2,2.7,3.3,2.3,1.9,2.2.6,2.1,2.1,2.2,3.6,2.2,2.1,2.1.8,1.8v2.9l-.5,4-1.1,2.9-1.7,1.9-1.1,2.5-.7,3.2-2.5,3.1-4.4,2.9-5,2.1-5.6,1.3-3.2,2.5-.8,3.7.6,3,2.1,2.3,1.3,2.5.4,2.7-1.2,4.6-2.8,6.4-3.3,4.2-3.7,2-1.6,2.8.6,3.6-.2,2.1-1.5.8-1.5,6.3.2,5.2,1.4,6.2,1.5,4.6,1.6,3.1,5.6,5.6,9.6,8.2,6.2,8,2.8,7.7,2.8,2.8-.4.3-2.9-3-2.8-7.7-6.2-8-9.6-8.2-5.6-5.6-1.6-3.1-1.5-4.6-1.4-6.2-.2-5.2,1.5-6.3.4-.2h-.1c0,0,1.1-.7,1.1-.7l.2-2.1-.6-3.6,1.6-2.8,3.7-2,3.3-4.2,2.8-6.4,1.2-4.6-.4-2.7-1.3-2.5-2.1-2.3-.6-3,.8-3.7,3.2-2.5,5.6-1.3,5-2.1,4.4-2.9,2.5-3.1.7-3.2,1.1-2.5,1.7-1.9,1.1-2.9.4-4v-2.9l-.7-1.8-2.1-2.1-3.6-2.2-2.1-2.2-.6-2.1-1.9-2.2-3.3-2.3-2-2.7h-.2s-.2-.3-.2-.3l-1.1-3.6-3.2-2.5-5.2-1.5-3.4-2.6-1.6-3.7-1.1-4.2-.7-4.7.2-4,1-3.2-.4-2.1-1.9-1-1.3-1.4-.7-1.8-.3-2.1h.2s-1.6-11.9-1.6-11.9l-1.5-5.6-2-2.1-4-2.4-6.1-2.7-3.8-2.6-2.3-3.8-4.4-4.3-2.8-1.7-2.7-.6-2.2-1.4-1.7-2.2-2.2-1.3-2.8-.5-3.2-1.7-3.9-3.2v-.3l-.9-2.3.4-1.3s.4-4.6.3-4.6v-1.4l-.9-4.1.2-.4c.1.6,1,4,1.1,4v1.4l-.5,4.6-.4,1.3.9,2.3v.3l3.8,3.2,3.2,1.7,2.8.5,2.2,1.3,1.7,2.2,2.2,1.4,2.7.6,2.8,1.7,4.4,4.3,2.3,3.8,3.8,2.6,6.1,2.7,4,2.4,2,2.1,1.5,5.6,1.6,11.9.3,2.5.7,1.8,1.3,1.4,1.9,1,.4,2.1-1,3.2-.2,4,.6,4.7,1.1,4.2,1.6,3.7,3.4,2.6,5.2,1.5,3.2,2.5,1.1,3.6.2.3,13.8-.7,13.5-.8,13.5-.9,13.5-.9,13.5-1,13.5-1.1,3.8-.3-.2-1.9-.2-5.6.3-3-.4-2.2-1.1-1.5-.7-1.9-.4-2.3-.6-1.5-.8-.8-.3-1.1.2-1.5v-1l-.5-.5s0-.8,0-.8v-1.1l-.7-3.2v-2l.3-2.2,1.3-4,.3-2v-1.9l.6-2.5,1.7-5.2v-1.2l-1-2.2-.4-1.7v-2.3l.4-2.9.9-3.4,1.4-2.8,1.8-2.2.4-2.3-1-2.5v-3.8l.7-5.1,1-3.9,1.2-2.6.8-2.5.3-2.3-.3-1-1.2-1-1.2-1.5-1.8-.2-2.1,1.2h-.3l-1.1.2-1.9,2.5-1.5,4.2-1.2,1.8-1.7,1.3-1.3,1.4-.8,1.5-1.1.4-1.5-.7-.4-1.9.6-3.1,1.1-3,2.3-5v-1.1l.5-1.4,4.1-2.4,1.5-1.8.3-2.1v-1.1l-1.4-.4-1.3-1.5-.9-1.6-.2-1.7,1.4-4.3v-.7l-.2-.4-1-.4-2,.9-2.1.3-.7-.2-.4-.7v-1.1l.3-1.4,1-2.6-.2-2.3.5-1.4-.7-2.4v-1.2l-1-1.2-2.5-1.5-5.7-1.8.3-2.6-.3-1.1-1.5-1.5-5.9-1.4-4-.5-3.9.3-2.8-.5h-3.1l-2.1-1-2.1-1-2.1-1-2.1-1-3.6-.7-3.6-.7-3.6-.7-3.6-.7-3.6-.7-3.6-.7-3.6-.7-3.6-.7-.9-1.7-.9-1.7-.9-1.7-.9-1.7-1.7-.6-.9-.3-.7-.9-1.4.5s-.6-1.4-.5-1.4h0c0-.1.6,1.1.6,1.1l1.4-.5.7.9.9.3,1.7.6.9,1.7.9,1.7.9,1.7.9,1.7,3.6.7,3.6.7,3.6.7,3.6.7,3.6.7,3.6.7,3.6.7,3.6.7,2.1,1,2.1,1,2.1,1,2.1,1h3.1l2.8.5,3.9-.3,4,.5,5.9,1.4,1.5,1.5.3,1.1-.3,2.6,5.7,1.8,2.5,1.5,1,1.2v1.2l.8,2.4-.5,1.4.2,2.3-1,2.6-.2,1.4v1.1l.3.7.7.2,2.1-.3,2-.9,1,.4v.4c0,0,0,.7,0,.7l-1.3,4.3.2,1.7.9,1.6,1.3,1.5,1.3.4v-2l.2-.9.6-.4,1.6-2.7,2.6-5,2.3-5.1,2-5.2,1.5-3,1.1-.7.7-1.6.8-4.8.8-2.2.6-.9.4.5-.4,2.6.2,2.1.8,2.6,1.1.8,1.5-1,1.1-1.9.8-2.8,1.2-1.3,1.5.3,1.2-.3.9-.9,1.8-.6.4,1v2.1l-.5,1.1h-.9l-.9,1.2-1,2.4.2,1.8,1.4,1.2h.5v-1.2l.5-1.3s1.7-2.4,1.8-2.4v-.7l3.4-2.3,1.2-1.4.2-1.5,1.6-3.1,1.7-1.1,2.4-.7h2.4l2.4.6,1.3-.2.2-1,1.9-.8,3.5-.7,2.5-1.6,1.4-2.5,2-1.4,2.6-.3,3.7.4,4.7,1.2,3.9,1.9,5.4,4.1,1.3.3h.8l.3-.4v-.5l-.5-.5v-2l-.3-.5,1-3.2s1.1-.9,1.1-.8h1.4l1,.5.5,1,.5.2h.9s.5.1.5,0h.3s.4-.6.4-.7h3l10.4.2,1.4-.4.8-.6v-.9l-.8-.7-2.9-1.3-1-1-.3-1,.3-1-.7-.8-1.6-.6-3.4.2-.7-.7.2-.8s.8-1.1.7-1.1v-1.5l-.4-.8-.8-2.5-.9-1.6-1.8-2.3-.7-.8-.9-.4v-.3c0,0-.7.3-.7.3l-1,.6-1.1,1.2-1.6,1.3h-1.8s-1.4-1.5-1.4-1.6h-1.8l-2.2,1.2-2,.2-1.9-.9h-3.4l-.5-.7v-.8l.5-.9v-2l-.3-3.1.2-2.2.7-1.4-1.4-.4-3.4.6-3.8,1.5-4.3,2.4-4.8,1.3h-5.3l-4,.5-4.3,1.4-.8-.2-2.6,1.5-4.5,3.3-3.3,3-2.7,3.3h-.5l-.8-.6s-1.6-.7-1.6-.6h-1.6l-1.6,1-1.8-.4-2-1.7-1.7-.4-1.4,1-2.4.7h-5.3l-.6-.6-.7-2-.7-.8-1.1-.5-1.8-2.1-4.1-5.5-1.1-.6-3.1-1.5-2.9-.6-7.1-.5-1.6-.7-.9.2s-4.4,3.6-4.5,3.6v.7l-.2.7-.7,1.2-.6.5-.4-.5s-.5-.9-.6-.9v-2l.2-3.2-.5-2-1.1-.8-.5-1.1v-1.3l-.9-1-1.8-.7-.9-1v-1.3l-.2-.9-.5-.4-1.7,1.2-3,2.8-2,2.4-1,2.1-1.6,1.2-2.2.4-1.7,1-3,3.1-2.3,1.7-3.9,1.4-5.5,1.1-4.5,2.2-3.5,3.3-4.3,2.9-5.1,2.5s-1.9.5-2,.5v.2l-1.6.4-1.9-.5-2.3-1.2-3.5-2.2-.5.2.2.5v.4l-.6.7-4.2,2-.6-.6,1.5-2.5s.5-1.8.4-1.8v-1.6l.6-2.1,1.3-2.5.5-1.7-.4-.8-1.7-1.3h-1.3l-1.6.5-4.9,3.8-.5-.2s-1.7-.5-1.7-.4h-.4l-3.8,3.3-3.9,2-9.3,3.1s-2.4.4-2.4.3h-1.9l-2.5-1.4-1-1h-.2v-.6l1.1-1.3,11.3-10,6.9-7.1,11.3-13.3,2.9-2.7,6.7-4.6,10.8-4.7,5.3-2.6,4.6-2.8,2.9-2.1,1.2-1.4,1-.7h.8l.7-.5-5.5-.2-3.4,1.1-2.6-.6-1.4-2.5-1.5-1.5-6.2,1.1h-7.9l-3.8.5-1.5-1-1.3-2.8-2.1-.2-3.5.8-4.7,3.9-4.5,2.1-3.6.2-3.6-1.7-6-3.6-4.2-4.1-4.6-1.3-3.5.5-1.3,2.3h-1.8l-1.4-3.6-1.2-2.8-2.3-1.1-4.2-2.6-2.9-1.4-4.4-1.7-1.5-.3-2.8-.2h-2.8l-3.3.6-.2.7-2.3,2.4-2.7,1.1-3.9.6-2.6-.9-1.4-2.4-5.6-2-9.8-1.7-5.6-1.5-1.5-1.3-.8-1.4-.2-2.3-2.5-5.7-1.1-4.8s-.5-5.7-.4-5.7v-1.9l-.6-.6-1.7-1.2-5.8-.8v15.6h-52.8c0-.1-2-.1-2-.1-.1-.7-.2-1.1-.2-1.1h-8.2l-11.6-.2-11.6-.3-11.6-.3-11.6-.4-11.6-.4-11.6-.5-11.5-.5-11.6-.6-11.5-.7-11.6-.7-11.5-.8-11.5-.8-11.5-.9-11.5-.9-11.5-1-2.9-.3-.6,7.8-.7,7.8-.7,7.8-.7,7.8-.7,7.8-.7,7.8-.6,7.8-.7,7.8-.7,7.8-.7,7.8-.6,7.8-.7,7.8-.6,7.8-.7,7.8-.6,7.8-.7,7.4h-.3s-.8,9.5-.8,9.5l-.8,9.4-.8,9.5-.8,9.4v.6h-.5v-.2l.8-9.4.8-9.5.8-9.4.8-9.5-.5.3.7-7.8.6-7.8.7-7.8.6-7.8.7-7.8.6-7.8.7-7.8.7-7.8.7-7.8.6-7.8.7-7.8.7-7.8.7-7.8.7-7.8.7-7.8.6-7.8-8.6-.8-11.5-1.1-11.5-1.1-11.5-1.2-11.5-1.2-11.5-1.3-11.5-1.3-11.5-1.4-11.5-1.5-11.5-1.5-11.4-1.6-11.5-1.6-11.4-1.7-11.4-1.7-2.8-.4-8.6-1.4-11.4-1.8-11.4-1.9-11.4-2-11.4-2-11.4-2-11.4-2.1-11.4-2.2-11.4-2.2-8.8-1.7-2.6-.5-11.3-2.3-11.3-2.4-11.3-2.4-11.3-2.5-4.9-1.1v.2s-5.9-1.3-5.9-1.3l-11.3-2.6-8.4-2h0c0-.1-2.8-.8-2.8-.8l-11.2-2.7-11.2-2.8-11.2-2.8-11.2-2.8-11.2-2.9-11.2-3-11.2-3-11.2-3.1-11.1-3.1-11.1-3.2-11.1-3.2-11.1-3.3-11.1-3.3-2.6-.8v6.1l.3,2.6.5,1.5,1.4.3.6-.3.5.2.3.7-.3,3.9s-1.4,4.5-1.3,4.5v.8l-.3,1.3-1.4.3-2.1-1h-.9l-.7.9v.8l.4.8,1.4.6.9,1,1,1.9,1.1,3.8v.9h-1.9l-1.7.7s-.6,1.1-.7,1.1v1.7l.3,1.3,2.1,2.6.3-.2v-3.7l.3-.3.5.9.3,2.4.5,1.6s1.1,2,1.2,2v1.4l-2.9,2.5-.7,1.3-2.6,2.6s-.6,1.3-.5,1.3v1.4l-.5,1.4-1.1,1.4-.4.9.5,1.2v1l-1.1,2.9-.9,5.4-.3.9-2.5,1.8-1.4.3-1.2-.3-1.1.5-2.9,3.8-.9.7-2.4.7-.7-.3-1.8-2-2.9-.3-3-1.2,1.5-1,1.7-2.6,1.5-1.5,3-1.1.3.4-.4,4.3.3.4,2.3-3,.5-.3,1.2,1.8,1.1.6.9-.5,2-4.2.6-2.3v-2.8s-1.4-4-1.4-4.1h.3l.9.7.5-.2.5-3.2.5-.7,3.2-1.5.9-1.7.7-4.3-1.3-.7-.3.4-.6,2.4-.8.6-3.8,2-1.8,2.1-2,1.2-3.2,1.2-2.4,1.3-2.7,2.6-.6.9-.8,2.1,1.3.3,2.9.2-.3.4s-3.5.9-3.5.8h-2.1l-.8-.5.3-1.2.8-2,3.5-3.8,9-7.6.3.5-.5,2h.7l4.9-4.6v-2.2l-.6-3.7v-2.7l.5-1.7v-.8s-2.7,1.2-2.7,1.3h-1.4l-1.7-.4-1.2-.7-1.8-3.5-.9-.5-2.7.5-1.2-.2-17.3-7.5-2.8-2.3-1.5-2.3-5.9-4.4-4.4-4.6-2-.9-.4,4-2.3,5.1-1.3,7.3.2,3.1,2.7,6.1.6,5.6-1.4,10.5.5,8.6-.8,5s-.7,2.8-.8,2.8v2.6l1.2-1.6.6-1.3,1.8.8.9,2.2,3.6,2-8.5,1.6-.4,4.9,2.6,2.4,1.2,2.5-2.2,4.7-2.2,3.6-.8-4.1.3-3.5-1.6,4.4-1.3,4.6s-1.9,3.5-1.9,3.6h3.3l1.3,1.8,6,.5.6,1.6,5.1,1.4,1,2.5,2.3,2.8,1.2.5s.5.5.7.6h0v.2c0,0-3-.5-3-.5l-2.1-1.1-1.1-2.7-1.3-1-4.6.3-6.5-2-.9-2.1h-.9v1.7l.3,1.7-4.1,11.5-2.4,10.6-2.2,3.6-.5,3-10.8,23.2-1.2,5.2-2.2,4.8-.7,3.8-2.6,3.1-4.3,10.5-5,13.9-1.5,1.2-2.9,3.8-3,4.6,1.9-.5.9.8-2.9,1.5-1.3-.4-1.1.8-7.2,11.7-2.2,2.5-2.7,4.4.9,6.4v3.7l-3,7.7-.7,3.1-.7,7.5,2.1,5.9.9.3-1,3.5-2.3,3.6s1.5,3.4,1.6,3.4v4.2l-.7,6.7-.8,2.9-4.9,8.1-2.1,7.3-3.8,5.1-.9,1-.3.6.9.4-.9.8-.9,1.8-.8-.6.5-.9-.2-.6-1.2.9-2.6,4-2.7,3.7-1.1,4.8-.5,4.9,4.4,8.1,3.8,11.1.5,3.8-.4,6.5-1.1,4.1s-3.1,5.2-3.2,5.2v10.9l-1.9,8,5.6,11.6,2.4,6.7,4.1,4.9.6,6.3,1.5,1.6,1.5,3.8v3.1l-1.9-5-1.3,5.1-1.9,2.7-.3,1.2,2.8-2,1.5,1.7,2.5,4.2,1.9,2.4,2.6,2,1.4,2.5h1.8l.5-4.7,2.2-5.9,3.2-.6,1.6.9,3.2,3.6,1.6.8,4.4-1.1,1.1.5,1.4,1.8,1.5.9,4.1,1s2,.9,2,1h1.8l2.8,2-1.5-.3-1.9-.9-2.7.3-11.2-3.9-4.1-.8-3.4.4-2.7,1.2.2,1.7.6,1.3v4.5l1.6,2.9.9,4.7v3.5l.6,1.2.3,1.8-1.5-.6-1.2-1.2-1.2-3-1.8-1.7-1.5-3.2.3-3.5.7-1.8-1.8-.9-2.4.4-1,4.8-1.2,4.3.8,7.4-1.5,6.6,4.7,10.7,8.3,4.6,1.3,4.1-.2,2.1-.6,2.7-2.3,2.5-3.6,2.6s-1.4,5.5-1.5,5.5v4.3l4.7,8.8,3.8,10.6.3,2.8,2.1,3.6.6,5.1,3.9,4,2.3,6,3.3,3.3.6,2.7-1.8,3.3.2,2.8,4.2,3.4,1.1,1.8.3,2-2.3,4.7-.3,5.7-1.1,2.3-.5,3.2-1.5,3.3,2.4,2.2,1.8,3.5,2.6,1.2,7.5,1.3,3.7,1.3,5.9,4,4.4,1.7,3.7.2,5.4,4.8,4,4.4v3.9l2.5,2.8,9.3,6.1,7.7,1.5,2.9,1.5,2.1,7.2-1.7,4.4,3.5,2.2,1.4-1.6,3.3,1.1,2.4,1.8,3.2,5.1,4.6,4.5,8.3,12.2,3.1,8.9.3,6.8-.4,2.6-1.1,2.5-.4,5.9,2.2-.5,1.2,1.9-.8,4.4v.3l9.8,1.4,9.8,1.4,9.8,1.3,9.8,1.3,9.8,1.3,9.8,1.3,9.8,1.2,9.8,1.2,3.9.4.2-.3,4.8.6,2.5-1.1,1.9-2.5s.6-2.1.7-2.6v.8l-.9,2.8-1.9,2.5-2.5,1.1-4.8-.6-.2.3-3.4,5.5-2.1,1.9,14.8,9.2,14.9,9.1,15,9.1,15.1,9,15.1,8.9,15.2,8.9,15.3,8.8,15.3,8.7,12.2,2,12.2,1.9,12.2,1.9,12.2,1.9,12.2,1.8,7.9,1.1,2.1-14.3,2.1-14.3,2.1-14.3,2.1-14.3,2.1-14.3,2.1-14.3,2.1-14.3,2.1-14.3,2.1-14.3,2.1-14.2,2.1-14.2,2.1-14.2,2.1-14.2,2.1-14.2,2.1-14.2,2-13.7h.8c0,.1-2,13.9-2,13.9l-2.1,14.2-2.1,14.2-2.1,14.2-2.1,14.2-2.1,14.2-2.1,14.2-2.1,14.3-2.1,14.3-2.1,14.3-2.1,14.3-2.1,14.3-2.1,14.3-2.1,14.3-2.1,14.3-2.1,14.3,4.4.6,12.2,1.7,12.3,1.7.6-4.5.6-4.6.6-4.5.6-4.5,7.6,1.1,7.6,1,7.6,1,7.6,1,7.6,1,7.6,1,7.6.9s4.5.5,6.6.8l.4.3.3.2,2.7,3.8,2.6,5.8,3.3,4.2,4.1,2.6,6.7,7.2,9.3,11.7,7.6,7.9,5.9,4.2,3.9,3.4,1.9,2.8,2.4,5.8,4.2,13.3-.6,5.9,1.6,5.8,3.5,7.6,3.3,4.6,3,1.6,3.2,2.9,3.4,4.2,4.1,3,4.8,1.7,6.5,4,8.2,6.3,5.7,3.3,3.2.4,3-1.6,2.7-3.5,2.6-2.2,2.4-.9,1.1-1.6-.3-2.4,2-5.1,4.2-7.9,4.6-4.1,5-.3,3.3-1.3,1.7-2.4h2.7l3.6,2.1,6.1,1.6s8.5,1.1,8.5,1.2h5l1.6-.7h.8v1l1.2.5h2.5l2.1,1.5,2.5,4.6,9.1,7.6.7,2.5,3.1,3.7,5.8,5.7,3.2,4.8.6,4,2.8,6.4,5,8.8,2.2,4.7-.6.6.3,2.4,1.3,4.2,2.6,3.6,3.8,3,3.8,5.3,3.8,7.6,4.7,5.9,5.7,4.1,3.2,3.7.6,3.4-.2,2.9-1,2.4.3,2.3,1.6,2.2.5,2.6-.8,3.6v1l.5.8,5,6.5,2.5,5.2,1.9,8.2,2.2,4.9,3.4,2.1,5.3.9,4,1.8,2.7,2.7,3.4,1.7,4.2.7,4,1.9,3.8,3,7.1,2.1,10.5,1.1,8,2.6,5.4,4,2.4.9h.7l.3-.6.4-1.1,2.2-1.2,5.1-.7.3-2.8s-.4-1.5-.4-1.6h-2.4l-6.8-13.7-1.2-3.7-1-8.5-1-2.8-1.1-6.1-1-2.5,1.5-3.5,1.6-2.6v-2.3l-.3-2.7-7.6-2.2-2.7-7.1,3.1,2.6,5.8,3.4h1.6l1.5-.5,2.2-3.7,3.5-10.3-5.1-6.9,1-.9,1.1-.4,4.5.7,3-1,3.6-4.3,1.5-4.4-3.9,1.3-.5-1.7v-1.7l2.2-.5,2.9-.2,1.8-1.1,1.2-1.4.5,1.6,1,1.1,1.9-1.5,1.2-1.1.5-4.1.8-4.1,3.5,3.3,4.2-1,2.7-1.6,2.5-2.1-2-.9-1.8-.4-4.1-9.1,1.1-.6,1.2.3.6,1.3,1.2,1.5,2.8,2.2,2.7-1.5v-1h3.6l5.8,1.4,3.8-.4-4.4,2.9-3.7,3,2-.5,5.8-3.5,6.1-2.2,4.4-3,2.8-1.4,9.7-6.4,4.1-2.7,4.3-4.8.4-3.6,4.3-3.8,4.6-4.6-1.7-3.7-2.1-2.9-1.1-7,1.4-.4s1.9,1.3,1.9,1.4h1.4l2-3.1h3.2l.7,3.9-1.9,4.4,1.6.5,4.5-1.4,2.8.8-7.9,5.4-.3,1.4,6.6-4.2,16.9-7.9s7.5-.9,7.6-.9v-1.4l-2.2-3.7,3.6-6.8h1.7l2.3-4.1.5-1.5-.5-6.9-1-2.5v-1.5l1-3.8-.3-3.5,1.8-4.2,1.4-2.2,1.5-4.5.3-2.9.6-2.2-.5-2.3,1.1-1.7-.8-2.4-.3-3.1-1.4-1.2-2.5-4.5v-2l-2.7-4.2v-1.5l-2.5-2.2-.5-1.4-.3-6-.7-1.7-2.2-3.4-4.9-4.9s0-5.2-.2-5.2v-5.2s0-5.2-.2-5.2v-5.2s0-5.2-.2-5.2v-5.2s0-5.2-.2-5.2v-5.4s.5,0,.5,0c0,.7.1,5.1.2,5.1v5.2s0,5.2.2,5.2v5.2s0,5.2.2,5.2v5.2s0,5.2.2,5.2v5.2l4.9,4.9,2.2,3.4.7,1.7.3,6,.5,1.4,2.6,2.2v1.5l2.6,4.2v2l2.5,4.5,1.4,1.2.3,3.1.8,2.4-1.1,1.7.5,2.3-.6,2.2-.3,2.9-1.5,4.5-1.4,2.2-1.8,4.2.3,3.5-1.1,3.8v1.5l1.1,2.5.5,6.9-.5,1.5-2.3,4.1s.9,1,.8,1v1.6l-1.2,2.6-1.4,1.3-1.3.4.7,2.2,1.4,1.2,2.1-1.2,2.5-.8,10.9-.6,3.7-.6,3.8.3,8.1,2.4,5.9,3.1,4.4,1.4,14.8,1.1,6.3-1.7.9-1-2.1-2-.8-1.3,1.9-2.6,2.2-1.7,4.4-1.7,2.6,3.3h5.4l4.1,5.6,1.9,2,6.7,1.4s1.8-2.1,1.8-2.2h1l-.3,2.4.7,1.9,3.4,4.2.2,1.3-3.1-.4-1.6.5-.2,1.3,10.5,3.4,9.2,2.1,2.6-1,3-5.1,2.9-1.4h4.4l2.9,1.4,2.3,5,1.3,1,2.7-1.5,1.1-2,.5-2.4.2-2.4.6-1.7-.2-3.9-1.8-1.2-1.5-.6-.8-1v-1.3l10.3,2.6,2.2,1.6.9,1.4.3,1.9,2.8.6,1.6-.3,1.9.4,1.6,1.3,2,.6,3,2.1,2.2,3.5,1.4,1.3-.5,3.7,1.6-.8,3.2-3.6,1.5,1,1.5,1.4.7-1.3.7-2.2,3-2v-2.5l-1.8-.5-1.9-1.1-2.6-3.4-2.3.3-9.9-2.8-2.6-2.5-3.5-1.9-1.9-3.2s1.1-1.2,1.2-1.2v-1.2l.7-.4,1.5.3,2.1-1.1-1.2-1,2-2.1,2.6-.7,3.5-1.7-.4-.8v-3.3l-1.7-2.2-.6-1.3.4-1.5-3.4-.3-2.3,2.5-.7,3.6-1.5.6-4.1-.8-2.8-3,1.2-1.7,2.1-1.5,1.7-1.7-.2-1.1-2.6-.9-1.2,1.5s-1.3.7-1.3.8h-2.9l-3.4,3-6.4,1.7-4-1.2-4.7-2.8,2.5-5.8,3.5-4.4,3.5.2,2.9.5,3.4,3.2,13.2,3.3,2.3-1.3,1-.5h-.3c0,0,2-1.1,2-1.1l4-5.4h2l1.4.4,5.9-1.9s5.1-2.4,5.1-2.5h1.1l1.9.3,4.7,1.7,10.3-1.5-1.2-8.3-1-7.6-1-7.6-1-7.6-1-7.6-1-7.6-1-7.6-1-7.6.2-7.6.2-7.6.2-7.6.2-7.6.2-7.6.2-7.6.2-7.6.2-7.6.2-7.5.2-7.5.2-7.5.2-7.5.2-7.5.2-7.5.2-7.5.2-7.5v-3.6l-3.2-2.4h0c0,0,.5,0,.5,0l-.6-.5-.5-.5h.6s.5.4.5.4l3.1,2.4v3.6l-.2,7.5-.2,7.5-.2,7.5-.2,7.5-.2,7.5-.2,7.5-.2,7.5-.2,7.5-.2,7.6-.2,7.6-.2,7.6-.2,7.6-.2,7.6-.2,7.6-.2,7.6-.2,7.6,1,7.6,1,7.6,1,7.6,1,7.6,1,7.6,1,7.6,1,7.6,1.2,8.3s1.7-.2,1.7,0h3.6l4-.5.5-2,.8-6.3,1.2-4.8.7-.6,2.4,2.6,1.1,2.6.4,4.6s1.1,1.4,1.1,1.5h1.5l1.8,2.3,1,2.2-3.9,1.7-2.8.5-.7,1,13.4-2.6,3.5-4.6.3-.2v.3s1.4-.8,1.4-.8l.3,1.2-1.8,2.4.9.5,6.7-2.5.8-2.4,2.1-2.6.2-3.5,1.8-.2,1.8,1.4,1.1-2.3,1.2-.8,1.4,2.7-.4,3-4.7,1.9-1.3,1.1-1.2,1.5,8.1-2.2,10-2.3,2.5-1.1,2.7-2,2.5-1.4,2.7.3,4.1-.9,3.4.8,1.1.8.7,1.4-4.2-.5-7.4,2,10.1,1.7,11.8,3.6,2.5,1.5h1.3s.3-1.4.2-1.4v-1.8l2.1-1.7,2.5-.6-1.1,2.2-.6,2,2.1,1.5-.3,1.3h-1.9l6.8,5.2,5.8,3.4,1.9,3v1.7l-.7.8-1.9-1.6-1.3-2.2.4,3,1.7,2.8,2.1.4,4.6-1.7,5.5-1.2,2-1.2,2.7-1.7,3.2-.2,8.2-6.2,3.3-.9,2.5-.2.7-1-.9-2.1.5-2,1.4-1.7,9.2-2.8,13.3,5.6,17,17.3,20.9,13.6,5.2,6.1.7,3v1.7l1.3,11.6-1.7,10.6-1.1,16.4,1.7,2.6,1.4,1.5,1.3.9.9-1.1,2.1.3,1.1-1.3.3-1.3v-4l-1.5-.8-1.9-2.5,1.3-.9,2.2.6,2.6,3,.9.3,1.7-1.7,1.7,1.4.4,1.1-.7,2.8-2.7,4.3-3.2,6.9-1.8.7-.9.8,2.5,1.7,1.6,1.8,8.6,13,4,4.6,2.8,2.3,1.9.7h2.3l.2-1.5-.9-2.5,3-1.6,3-.4-1.5,3.2.8,7.7,2.4,6,1.3.3,1.3-.7,1.3-3.5,1.2-1.6,1.8-1.2-1.9,4-1.6,4.7,1.1.8,2.6.9,3.9,11.5,4.6,6.1,6.1,2.9,7.9,1.3,1.4,3.9,5.4,5.4,5.7,8.2,2.3.8,3,.6,1.8,1.7-.7,1.8-5.6-3.1-1.4.6-.6,1.8v1.7l2.7,3.4,3.7-.4,5.3-2.7h4.8l6.1-4.2,2.7-.4,3.7-4.9.8-4.2-.4-8,2.2-5.6,1.2-5.9h.6l.5,1.2.4.3-1.6-12.3-.6-18.3-2-9.7-2.8-7.3-2-3.4-4.5-4.4-22.2-36.9-1.9-3.5-3-4-2.6-7.1-1.6-2.8-1.5-4.8,1-.2,1.5.8v2.1l.8,2,2.6.9.6.8-1,2.8.3,2.2,2.2,4.6s.8-1.4.7-1.4v-3.2l.3-2.8.9-.4.8,8.3,1.5,5.7,5.7,9.2,1.8,1.1-3.9-6.4-2.2-4.2-1.1-3.6-.5-3.8v-2.6l1.1-2.7-1.9-2.6-15.4-18-10-15.3-7.4-12.8-5.4-13.5-2.6-4.9-4.9-14.6-2.2-3.4h-.4c0-.1.7-.2.7-.2l-.9-2.8-.6-2.9.4-1.7s.4-4,.5-4v-3.3l-.5-1.5.2-3,1.1.7h1.7l2-4.1-1.7-1.8-1.8-.5-.3-.8,2.8-1.2.9-2.8,1.1-1.7,1.1-2.6-.7-.2-.9.6-1.3-.2.3-1.5,2.2-1.9v-1.5l-.9-.7-.6-1.4,1-1.8,2.1-.7s.8-1.6.7-1.6v-1l-1.2-.9-.9-1.4s.9-.8.9-.9h1.3l3.8-2.8,1.1-3.4-6.3-1.7-.7-.7,6.9,1.9-.6-1.5.8-2,1.9-.8,1-.9,1.7-3.3-.5-1.2-1.2-.6-1.3-1.1-1.5-2.4-.7-3.4,3.9,3.9.8-.6v-1.3l.9-.8,1.2,2.7.8,1.3h1l2-1.9.7-1.3v-2.9l-2.3-1.8-3.8-.8,2-1.2,3.9-.2,3.5.3,3-2,1-1.8,1.6-1,2-.2,3.2-1.8,2.4-2.4,1.1-2.8s-1.9-3-1.9-2.9h4.5l2.1-1.9,3.4-4.1.3-3.8,2.8-1.6,2.6-1.1,4.2-4.6,1.2-2.3-2.7-4.9,1.2-3.9.3,1.7v2.1l2,2.4.7-6.8,5.4-11.5,2.1-3.1,7.4-7.4.2.2,4.9-2.7,13.1-2.4.8-3.5-.8-7.1,1.7,3.6.4,3.4.6,1.9s.4-4.7.5-4.7v-4.1l2.6-6.1,1.4-2.2,1.3-1.3,3.6-4.6,3.9-3.9-1-1-.7-1.4-1.1-5.5,1.2,1.3,1.5,2.8,2.2.3,1.3-.8,3.1-4.5,2.9-.2,5-1.2,3.2-.8,2.1-.6.5-2,2.8-1.3,3.2-1,2-3.2,1.7-4.3-3.5-1.4-9,3.9h-5.3l-3-1.7-4.2-4.5,8.1,4.5h2.8l4.2-4.4.2-1.3-.2-2,.8-2.8,1.2-2.6-1.6-1.1-1.6-.7-13.4-2.5-2.7-2.3,5.5,1.5,5,.2,3.4-1.6v-3.2l1.1-.3,1.7.6,1.2,2.7,1.2,1.4s1.3-.8,1.3-.9h1.9s4,.4,4,.3h3.4l2.1-1.5,3.3-6.1s4.9-6.9,4.8-6.9v-4.9l-1.1-3-.9-2.2s-1.8-1.9-1.8-1.8h-1.4l-3.4,3.4.8,7-1.2,1.5-1.2.3-.6-3.9-.3-3.7s-1.1-3.5-1.1-3.4h-4.6l-1.6,1.4-2.9,1.2-4.7.9-3.4,1.2-3.8.3-.4-3.1-1.5-3.8-.6-3.8,1.2,3.1,1.9,2.6,4.4,1.5,2.5-1.1,1.4-2,.7-2.9,2-.6,3.2.2-2-2.6,1.8.6,2.5.3-.3-2.8-.8-2.5,3.4,1.1,3.6.3,2.4.8,2.6,2-2.9-5.8-2.9-4.1-2.1-1.4s-.8-1.7-.7-1.7v-3.3l-.3.5-7.9,1.7-11.6,2.4-11.6,2.4-11.6,2.3-11.6,2.3-11.6,2.2-11.6,2.2-11.6,2.2-11.6,2.1-11.6,2.1-11.7,2-11.7,2-11.7,1.9-11.7,1.9-11.7,1.8-11.7,1.8-.6-.4.2-.5h0s.7.5.7.5l11.7-1.8,11.7-1.8,11.7-1.9,11.7-1.9,11.7-2,11.7-2,11.6-2.1,11.6-2.1,11.6-2.2,11.6-2.2,11.6-2.2,11.6-2.3,11.6-2.3,11.6-2.4,11.6-2.4,7.9-1.7,2.5-.5,1-.2-2-4-2.6-3.9-1.6-3.6-1.5-1.8-4.8.3-3.4-.2-4.4,3.6-2.9.3-1.1-2.4-4.8-2.5-2.3-4.7-3.1.2-5.4-.5-2.8-1.3-6.4.3-1.1-.3-.9-.6,7.8-1.2,10.5,1.9,2.3-.7,1.6,2.9,3.6,2.1,1.8,1.3,2.3,1.1,1.8-1.3,1.4-2-1.1-2.2-1.2-1.3-2.9-2-3.3-.7-4.2-2.2-5.1-4.1-.8-1.1-.3-1,8.6,6.3,3,.8,1.7-1.5-.7-1.2-.3-2.2,4.6.2-.4-3-1-2.5-3.4-.7,1.6-2.1-6.1-1-2.4-1.1-3-2.9-3.5-1.5-5.3-4.2-3.2-3.2-6.9-4,1.3-.3,4.7,2,4.6,4.6,1.3.7,11.6,8.2h1.9l2.9-.8.8-2.1-.2-3,.5-2.4-.5-1.8-3.4-2.1-4.1-1.1-3.2-2.8-3.3-.9-8.7-.7s-5.7-5.4-5.7-5.5h-2.1l-3.6,2-1.4-.2-1.6-1.5s0-5.4,0-5.4v-3l2.3-3.7,1.9-2.2,1-2.5v-1.2c-.1,0,.2,1.1.2,1.1l-.5,3.1-2.1,2.7-1.8,4.9-.3,2,1,3.3h2.5l2.1-2.3,2.3-.6.8,1.9,1.6,1.6,2.4,1.8.3-1.9-.5-2.1,4.2,4.4,5.8.2,4.8,1.2,2.1,1.6,2.2,1.1-.2-2.2-1.5-2-2-2.5-8.9-5.8-1.5-3.1-.9-2.9.8,1.2.7,1.5,3.2,3.6,2.2.9,2.6,1.2,1.3-.6-1.1-1.9-1.8-1.9-1.8-2-2.8-8.1v-1.9l-.3-2.1-.6-2.3.4-2-1.3-2-1.8-2.3.4-.2,2.6,1,1.3-2.1-.7-2-2.2-.9-3.4-3.2v-.6l5,.7.3-1.2-.5-2,1.3-1.1v-1.7l-.3-.9.4-.8,2.4,2.8.3-1.3-.5-3.5.9.5.6,1.5,2.1-1.4,1.1-1.5.2-1.6-.6-2.2.4-1.5,1.7-.7,1.3-1,.4,3.3,2.9-.9-.9,2-1.2.6-1.1,2.3h2.1l2.1.5-3,1-3,.6-2,2.7-1.5,5.4,1.7,4.9,2.1-2.9.3,1.6-.8,4-2-.3-2.1.5v2.4l.3,1.7,2.5-2,1.8.7,1.3,2.3-2.2,1.7-1.6.5-.3,4.6.9-.7s.5-2.2.5-2.1h2.2l1.6,1.8,4.4,2.6,1.2-.4.7.8-3.5.7h-2.8l-1.9,1.2v4.4l1.4,2.1,2.3,2.6,3.3,1.1,2.4,1.1.8-.8.2-1.2.6-.5.9,1.5.8-.9,1.1-2.2.9-.5-.2,1.8.9,2.2-.2,2-.9,2.1,1.3.6h1.2l2.4,1.7s-.6,2.4-.7,2.4v2.6l3.6-.9,2.6.2.8-2.1,4.6-1.7,2.8-1.1.3-1.7,1.3-3,1-4.9,1.9-1,.2-1.8-.6-3.4.3-1,.7-.9.7.5.4,1.7.5-.9v-1.8l-.2-1.2-3.3.8-6.9,1.6-6.9,1.6-3.1.7-1.7-6.2-1.7-6.2-1.7-6.2-1.7-6.2-1.7-6.2-1.7-6.2-1.7-6.2-1.7-6.2-.5.5-7,1.4-7.1,1.6-7.1,1.5-7.1,1.5-7.1,1.5-7.1,1.5-7.1,1.5-7.1,1.5-7.1,1.4-7.1,1.4-7.1,1.4-7.1,1.4-7.1,1.4-7.1,1.3-7.1,1.3-6.3,1.2h0c0,0,0-.2,0-.2l6.4-1.2,7.1-1.3,7.1-1.3,7.1-1.4,7.1-1.4,7.1-1.4,7.1-1.4,7.1-1.4,7.1-1.5,7.1-1.5,7.1-1.5,7.1-1.5,7.1-1.5,7-1.5,7.1-1.6,7.1-1.6,1.6-3.7.8-1.2,1.2-.8,1-.3-1,.7-.8,1.2-1.6,3.7,1.7,6.2,1.7,6.2,1.7,6.2,1.7,6.2,1.7,6.2,1.7,6.2,1.7,6.2,1.7,6.2,3.1-.7,6.9-1.6,6.9-1.6,3.3-.8-.4-1.9-1.8-2.7-1.4-.5-2.3.9,1.4-2.1.5-3.9-.7-2.1-3.4-.9-5.2-4.9-3.7-4.4-2.3-7.3-4.4-4-2.3-2.6-.5-3-.8-1.3-.7-2,1.9-3.6.6-2.8,1-1.7,1.1-.3h-.9c0-.1.2-.4.2-.4l2.1-1.9,4.2-2.2,2-3.9-.3,1.9-.9,2.8-5.7,3-1.7,2.1-.8,3.4-.6,4.7.8,2.7.2,1.7,6.6,4.7,4.3,1.3,3.6,2.3,2.6-.7,2.5.3,2.8,1.1.2,4s-.1,4.1-.1,4.2h1l3.4-3.3,2.6-9.2.9-1.9-.4-1.8.5-1.1s1.6-1.7,1.6-1.8h1.3l.9-2.1v-2.8l.3-1.4-1.1-2.4h2.5l1.5-3.6,1.4-5-.3-8.8.3-1.7.8-.9,1,6.6.5,1.6-.4-5.5-.8-6.1-.2-4,.2-3.4-.3-3.2-1.1-2.7-1.3-1.8-1.3,1.3-6,.4-1.4-2.7.4-3.4.8-1.9.8-1.2,1-.8,1.1-1.6.9-1.7,1.4-6.9-.3-3.2h0s-3.4-1-3.4-1l-3.4-1.1-3.4-1.1-3.4-1.1-3.4-1.1-3.4-1.1-3.4-1.1-3.3-1.1h0s-.1-.1-.1-.1l-1-1.3-1.3-.9-5.8-.7-1.7-1-1.6-1.5-1.4-2-1-2.2-.5-1.8v-2.2l-1.5-1.1v-.2s1.5,1.1,1.5,1.1v2.1l.5,1.8,1,2.2,1.4,2,1.6,1.5,1.7,1,5.8.7,1.3.9,1,1.3,3.4,1.1,3.4,1.1,3.4,1.1,3.4,1.1,3.4,1.1,3.4,1.1,3.4,1.1,3.3,1.1v-.2l-1.6-5.4-2.7-4.1,1.6.9,1.7,1.5,1.4,4.5.4,5.9-.5,3.2-.3,3.7.9-1.3.7-1.8,1.6-1,1.7-2.4,2.4-4.2,1-1.3-2.2-2.1h0c0,0,2.2,2,2.2,2l1.1-1.5,10.4-9.1,4.3-2.8,2.2-3.5,2.5.2,10.8-3.2,2.8-2.3h3.3l5.3-2.9,4.1-1.7,2.6-.5-.2-2.3.5-1.1-.5-2.5-.3-1.6-.7-2.7-.9-3.1-.9-3.3-.8-2.9-.6-2.1-.8-2.9-.6-1.9,1.7-.5,3-.9,2.9-.8,1.8-.5,2.2-.6h0c0,0-1.6.5-1.6.5l-1.8.5-2.9.8-3,.9-2.2.6.6,2.1.8,2.9.6,2.1.8,3,.9,3.3.9,3.1.8,2.7.3,1.6.5,2.5-.5,1.1.2,2.3,2.2-.4,6.7-3.9,1.5-3.6-1.4-7.2,1.1-3.2s-1.8-3.4-1.8-3.3h1l1.1.7,1,1.5,1.6,1.2.8-1.3h0s.9-1.5.9-1.5l.8-.3-.5,4.5,1.8,4.7.9.9,2.1-2.6,3-1.3s6.2-8.8,6.2-8.9h1.1l1.5,3.9ZM1066.5,264.5l.2,5.5.2,5.9.2,5.9.2,5.9h-.2c0,.1-.2-5.4-.2-5.4l-.2-5.9-.2-5.9-.2-5.9h.2ZM203.2,172.2h.3c-.2,0-.3,0-.3,0ZM207.4,176.2l.6,4-.7-4.1h0ZM209.5,197.5l-1.5-2.4.4-3.2v.2l-.3,3.1,1.4,2.3h0ZM1055.1,328.2l-.4-5,.3-1.7.2-.5-.3,1.7.4,5.1-.2.4ZM1054.7,297.1h0s-1.1,2.8-1.1,2.8h0s1.1-2.8,1.1-2.8ZM1051,304.1h0c0-.1-.5,1.5-.5,1.5l.2,2.6,3.9,2,1.5,2,.8,2.4v2.2l-.2.5v-2.2l-.8-2.4-1.5-2-3.9-2-.2-2.6.6-2ZM992.1,512.3h4.8c-2.1,0-4.3.1-4.3.2h-4.8c2.1,0,4.3-.1,4.3-.2ZM976.5,512.6h4.4-3.9c0,0-2.7,0-2.7,0,1.2,0,2.2,0,2.2,0ZM968.8,512.8s.2,0,.6,0l.7,1.2,1.7,4.2.7,4.2,1.7,2.7,2.7,1.2,1.8,2.7.9,4.1,2.3,3.4.5.4,7.1,5.1h-.5l-7.2-5.2h-.1l-.3-.2-2.3-3.4-.9-4.1-1.8-2.7-2.7-1.2-1.7-2.7-.7-4.2-1.7-4.2-.8-1.3h0ZM937.4,308.6l1.1-1.3,4.4-3.9,1.4-1.8.7-1.8.9-3.8v.5c0,0-.9,4.1-.9,4.1l-.7,1.8-1.4,1.8-4.4,3.9s-1,1.3-.9,1.3v.7c0-.2-.2-.3-.2-.3v-1.2ZM948.7,395v.4c-.1,0-.2,0-.2,0h-3.9c0-.2,0-.4,0-.4h4.2ZM503.6,313.2h4.1l4.5,1.4.7-.3.2-.4-.3-.9.2-1.6,1.2-1.7.6-1.5,1.1-.7,1.3-.3,1,.2h0c0,.1-.6,0-.6,0l-1.3.3-1.1.7-.6,1.5-1.2,1.7-.2,1.6.3.9-.2.4-.7.3s-4.5-1.4-4.5-1.3h-4.1l-1.8-.8c.7.3,1.3.5,1.3.5ZM473,313.7l.5-.3.4-1.3.9-.9,2.3-1,1.9.4,7.1,2.5h.5l.4-.3,1.6-1.9,1.1-.6h1.6l4.4,1.3,5.3.6s.2,0,.5.2l-5.3-.6-4.4-1.3h-1.6l-1.1.7-1.6,1.9-.4.3h-.5l-7.1-2.5-1.9-.4-2.3,1-.9.9-.4,1.3-.5.3-.6-.2-.3-.2h.4ZM464.5,295l1.3.7h0s-.8-.4-.8-.4l-2.5-.2-.5-.3,2.5.2ZM443.2,214.3h4l.8.2.2.2h-.4s-4,0-4,0l-1.2-.4-.4-.3,1,.3ZM442.7,260.3l2.9-.9,3.7-2.6.3-.9s.3-.4.3-.3h.4l.3.2h0l-.3.4-.3.9-3.7,2.6-2.9.9-1.6,1.2-1.3.4h-.6l-.3-.2h.3l1.3-.5,1.6-1.2ZM437.9,209.6l1.8-.3.4.3h0s-1.7.3-1.7.3c0,0-.4,0-.5,0v-.2ZM372.2,208.2l.2-.2-.2.2h0ZM321.3,212.9l7.3,1.9,7.3,1.8,7.3,1.8,7.3,1.8,7.3,1.8,7.4,1.7,6.7,1.6h0s-6.8-1.6-6.8-1.6l-7.4-1.7-7.3-1.8-7.3-1.8-7.3-1.8-7.3-1.8-7.3-1.9s-3-.8-5.1-1.4l5.2,1.4ZM286.6,210.5h14.9l7.1,1.4h0s-7.1-1.3-7.1-1.3h-14.9l-5.5,1,5.6-1.1ZM263.5,210.5l10.4,1.4h-.1l-10.4-1.4h-.5s.6,0,.6,0ZM249,206.5l1.1,2.1h0s-1.1-2.2-1.1-2.2h0ZM320.9,381l-11-2.7-11-2.7-11-2.8-10.9-2.8-10.9-2.8-10.9-2.9-10.9-2.9-2,7.3-2,7.3-2,7.3-2,7.3-2,7.3-2,7.3-2,7.3-2,7.3-2,7.3-2,7.3-2,7.3-2,7.3-2,7.3-2,7.3-2,7.3-2,7.3,5.4,8.3,5.5,8.3,5.5,8.3,3.4,5.2-3.8-5.7-5.5-8.3-5.5-8.3-5.4-8.3,2-7.3,2-7.3,2-7.3,2-7.3,2-7.3,2-7.3,2-7.3,2-7.3,2-7.3,2-7.3,2-7.3,2-7.3,2-7.3,2-7.3,2-7.3,2-7.3,10.5,2.8,10.9,2.9,10.9,2.8,10.9,2.8,11,2.8,11,2.7,11,2.7,11,2.6,2.1-8.8,2.1-8.8,2.1-8.8,2.1-8.8,2.1-8.8,2.1-8.8,2.1-8.8,2.3-9.7v-.2l3.2-5.6,1-2.8v-1.8l.7-1.5,1.5-1.3.2-1.4v.2c0,0-.2,1.7-.2,1.7l-1.5,1.3-.6,1.5v1.8l-1.1,2.8-3.2,5.6v.2l-2.3,9.7-2.1,8.8-2.1,8.8-2.1,8.8-2.1,8.8-2.1,8.8-2.1,8.8-2.1,8.7-10.2-2.4ZM348.3,696.6v1.4c-.1,0-.2-.1-.2-.1l.2-1.7v.4ZM344.5,676.6v.3c0,0,0,.3,0,.3l-.6,2.9v-.4c0,0,.6-3.2.6-3.2h0ZM332,759.8s0,0,0,0v-2.1s0,0,0,0v2.1ZM354.6,708.4l-1.5,1.1-6.4,3.3-3.7,3-4.2,5.2-.5,4.8-1,3.9-1.4,3-1.7,2.6-2.1,2.3-2,1.2-1.8.2-1.3,3.3-.7,5.6h0s.8-6.5.8-6.5l1.3-3.3,1.8-.2,2-1.2,2.1-2.3,1.7-2.6,1.4-3,.9-3.9.5-4.8,4.2-5.2,3.7-3,6.4-3.3,1.5-1.1s0-.2,0-.5c0,.2.1.3.1.3l-.2,1.1ZM369.1,637.4l-2.4,1.4-1.6-.4-1.3-1.5-1.2-2.6-2.1-1.8-3.1-1-2.9-.2-2.7.5-1.4.9h0c0,0,1.8-1.2,1.8-1.2l2.7-.5,2.9.2,3.1,1,2.1,1.8,1.2,2.6,1.3,1.5,1.6.4,2.1-1.2h0ZM372.4,633.9h-.6c.2-.3.3-.5.3-.5h.4c0,.3,0,.5,0,.5ZM368.8,260l-4.6,6.6-1.2,3-3.9,4.8-6.6,6.5-3.7,5.1-.6,3.4v-.2c0,0,.6-3.7.6-3.7l3.7-5.1,6.6-6.5,3.9-4.8,1.2-3,4.6-6.6,7.9-10.2,3.6-6.8v.4c0,0-3.6,6.9-3.6,6.9l-7.9,10.2ZM539.1,628.9h0s-10-1.5-10-1.5l-10-1.5-10-1.5-10-1.6-10-1.6-10-1.7-10-1.7-10-1.7-10-1.7-10-1.8-10-1.8-10-1.9-10-1.9-10-1.9-10-2-9.7-1.9v-.5c0,0,.9.5.9.5l.2-.8,9.1,1.8,10,2,10,1.9,10,1.9,10,1.9,10,1.8,10,1.8,10,1.7,10,1.7,10,1.7,10,1.7,10,1.6,10,1.6,10,1.5,10,1.5,9.6,1.4v1q-.1,0-.1,0ZM615,843l-7.8-.9-7.8-.9-7-.8h0c0,0,.2,0,.2,0l7.7.9,7.8.9,7.7.9,6.3.7-7.1-.7ZM830.4,681.1l-.2,4.8-.2,4.8-.2,4.8-.2,4.8-.2,4.8-.2,4.8-.2,4.8-.2,4.8-.2,4.8-.2,4.8-.2,4.8-.2,4.8-.2,4.8-.2,4.9-.2,4.5-.8-.2.2-4.8.2-4.8.2-4.8.2-4.8.2-4.8.2-4.8.2-4.8.2-4.8.2-4.8.2-4.8.2-4.8.2-4.8.2-4.8.2-4.8.2-4.8.2-4.4h.8s-.2,4.8-.2,4.8ZM838.6,761.2l-1.7-1.2-5.8-5.3.7.4,5.9,5.4,1,.7h0ZM853.4,768.1l-.3-3.4-1.7-2.9-.6-.8-1.7-1.3,2.5,1.8.6.8,1.7,2.9.3,3.3-.8-.4ZM876.6,774.7l-3.1-2.5h.2s3.2,2.6,3.2,2.6h-.3ZM890.9,777.1l-.6-1.8-.2-1.8h.8c0,0,.3,2.4.3,2.4l.6,1.8-.9-.6ZM895.6,783.8l-.9-.8v-3l-.6-.8.8.5s.8.9.9.9v3l.3.3h-.5ZM907.5,782.5l-1.1-2.3-.2-.3h.1l.6.2.5.7,1,2.1-.9-.4ZM912.2,785.8l-1.5-1.7.8.3,1.3,1.6-.6-.2ZM922,790.1l-.9-.8-.7-1.1-.3-1,.5-2.5-.2-.5h.2c0-.1.7.2.7.2l.3.8-.5,2.5.3,1,.7,1.1s.2.1.3.3h-.4ZM932.3,784.3l-1.4-2.1s0,0-.2-.2h.4l.7.7,1.2,1.9-.7-.3ZM940.8,785.7v-1.9l.5.2s.4.3.5.3v2l.6.4c-.8-.5-1.6-1-1.6-1ZM949.5,791.1l-2-1.9h.4c0,.1,2.3,2.2,2.3,2.2l-.7-.3ZM977.1,784.3l-.6-.5-.5-1.1-.5-.3h.1c0,0,1.3.7,1.3.7l.5,1.1.2.2h-.5ZM999.4,788.8l-3.2-3-5.5-3.2h.1s6.3,3.7,6.3,3.7l2.9,2.8-.6-.3ZM1004.8,791.5l-1.4-1,.4.2,1.3.9h-.3ZM1013,793.9l-.2-.2h.2v.2ZM1023.4,796.7l-1.6.3-1.9-.2-1.3.9-.9.2h-.4c0-.1.9-.3.9-.3l1.3-.9,1.9.2,1.6-.3,3.2.4h.1c0,0-2.9-.3-2.9-.3ZM1126,791.6l-1.3,1.4.5,1.5.4.9h0s-.4-1-.4-1l-.5-1.5,1.4-1.4v-1.2h0v1.3ZM1128.2,815v.9h-.3s0-1,0-1l1.2-7.3-.4-.9-1.7-2.1-.3-2.6.8-3.3-.6-2.5h0c0,0,.6,2.6.6,2.6l-.8,3.3.3,2.6,1.7,2.1.4.9s-1.1,7.3-1,7.3ZM1132.8,774.4l-3.3,1.3-.5.6-.3.6.7,1.1.5,1.7-.3,3-.8,1.3-.7,1.2-2.7,2.3-.7,1.6h0s.7-1.7.7-1.7l2.7-2.2.7-1.2.7-1.3.3-3-.5-1.7-.7-1.1.3-.6.5-.6,3.3-1.3s.4-.3.8-.6l-.6.6ZM1133.6,772.2l-.9-1.7.9-2.5h0c0,0-.9,2.4-.9,2.4,0,0,.5,1.1.8,1.8ZM1138.1,762.7h0s0-1.8,0-1.8h0s0,1.8,0,1.8ZM1134,674.5l-9.1.5-9.1.5-9.1.5-9.1.4-9.1.4-9.1.4-9.1.3-9.1.3-9.1.3-9.1.3-9.1.2-9.1.2s-9.1.2-9.1.3h-8.6v-.4c0,0-.2.4-.2.4h0l-.2-5.1v-10.1c0,0,0-5.1,0-5.1l-7.5.2h-15c0,0-7.5,0-7.5,0h-37.5c0,0-7.5,0-7.5,0l-7.5-.2h-7.5s-7.5-.2-7.5-.3h-7.5l-7.5-.2-7.5-.2-7.5-.2-7.5-.2-7.5-.2-7.5-.3-7.5-.3-7.5-.3-7.5-.3-7.5-.3-7.5-.4-7.5-.4-7.5-.4-7.5-.4-7.5-.4-7.5-.4-7.5-.5-7.5-.5h-.3s.5-7.5.5-7.5l.5-7.6.5-7.6.5-7.6.5-7.6.5-7.6.5-7.6.5-7.6.5-7.6.5-7.6.5-7.6.5-7.6.5-7.6.5-7.6.5-7.6.5-7.6v.5l.3-5,.3-5,.3-5,.3-5,.3-5,.3-5.1.3-5,.3-5-7.7-.5-7.6-.5-7.7-.6-7.6-.6-7.6-.6-7.6-.6-7.7-.6-7.6-.7-9.6-.9-9.6-.9-9.6-.9-9.6-1-9.6-1-9.6-1-9.6-1.1-9.6-1.1-9.6-1.1-9.6-1.2-9.6-1.2-9.6-1.2-9.6-1.3-9.5-1.3-9.5-1.3-9.1-1.3v-1c.1,0-7.5-1.1-7.5-1.1l-7.6-1.1-7.6-1.1-7.6-1.2-7.6-1.2-7.6-1.2-7.6-1.2h-.4c0,0,7.4,1.1,7.4,1.1l7.6,1.2,7.6,1.2,7.6,1.2,7.6,1.1,7.6,1.1,7.6,1.1,9.5,1.4,9.5,1.3,9.5,1.3,9.6,1.3,9.6,1.2,9.6,1.2,9.6,1.2,9.6,1.1,9.6,1.1,9.6,1.1,9.6,1,9.6,1,9.6,1,9.6.9,9.6.9,9.6.9.9-10.1.9-10.1.9-10.1.9-10.1.9-10.1.9-10.1.9-10.1.9-10.1-.6-.7.9-10.1.9-10.1.9-10.1.9-10.1.9-10.1.9-10.1.9-10.2.8-9.5h.6c0,0,.2,0,.2,0h.3l-.9,9.8-.9,10.2-.9,10.1-.9,10.1-.9,10.1-.9,10.1-.9,10.1-.9,10.1,10.3.9,10.3.8,10.3.8,10.3.8,10.3.7,10.3.7,10.3.7,10.3.6,10.3.6,10.3.5,10.3.5,10.3.5,10.3.4,10.3.4,10.3.3,11.8.4,8.7,6.3,5.3,2,2.6-1.7s5.5-.9,5.5-1h8.4l5.3.9,2.2,2,4.3,2.2,6.4,2.4,3.8,2.6,1.3,2.8,2.2,1.8,1.8.5v.4c0,0,.2,0,.2,0l.4.3-2.3-.6-2.2-1.8-1.3-2.8-3.8-2.6-6.4-2.4-4.3-2.2-2.2-2s-5.3-.9-5.3-.8h-8.4l-5.5.9-2.6,1.7-5.3-2-8.7-6.3-11.8-.4-10.3-.3-10.3-.4-10.3-.4-10.3-.5-10.3-.5-10.3-.5-10.3-.6-10.3-.6-10.3-.7-10.3-.7-10.3-.7-10.3-.8-10.3-.8-10.3-.8-10.3-.9-.9,10.1-.9,10.1-.9,10.1-.9,10.1-.9,10.1-.9,10.1-.9,10.1-.9,10.1,7.6.7,7.7.6,7.6.6,7.6.6,7.6.6,7.7.6,7.6.5,7.7.5-.3,5-.3,5-.3,5.1-.3,5-.3,5-.3,5-.3,5-.3,4.8h-.1s-.5,7.6-.5,7.6l-.5,7.6-.5,7.6-.5,7.6-.5,7.6-.5,7.6-.5,7.6-.5,7.6-.5,7.6-.5,7.6-.5,7.6-.5,7.6-.5,7.6-.5,7.6-.5,7.6-.5,7.6,7.5.5,7.5.5,7.5.4,7.5.4,7.5.4,7.5.4,7.5.4,7.5.4,7.5.3,7.5.3,7.5.3,7.5.3,7.5.3,7.5.2,7.5.2,7.5.2,7.5.2,7.5.2s7.5.2,7.5.3h7.5l7.5.2h15c0,0,7.5,0,7.5,0h37.5c0,0,7.5,0,7.5,0,0,0,7.5-.1,7.5-.2h7.5l-.5-.3v-5.3l-.2-5.3v-5.3l-.2-5.3v-5.3s0-5.3-.2-5.3v-5.3l-.2-5.3v-5.3l-.2-5.3v-5.3l-.2-5.3v-5.3l-.2-5.3v-12.1l-4.9-2.8-2.2-2.6-1.1-3.4-2.2-3.3-3.4-3.3-.6-3.6,2.2-3.8,1.8-1.9h1.6v-1.6l-1.2-3.2-1.4-1h.3c0-.1,1.7,1.1,1.7,1.1l1.2,3.2v1.7h-1.6l-1.8,1.9-2.2,3.8.6,3.6,3.4,3.3,2.2,3.3,1.1,3.4,2.2,2.6,4.9,2.8v6.8l.2,5.3v5.3l.2,5.3v5.3l.2,5.3v5.3l.2,5.3v5.3l.2,5.3v5.3l.2,5.3v5.3l.2,5.3v5.3l.2,5.3v10.2c0,0,0,5,0,5,0,0,0,5,0,4.9h9.1l9.1-.2,9.1-.2,9.1-.2,9.1-.3,9.1-.3,9.1-.3,9.1-.3,9.1-.4,9.1-.4,9.1-.4,9.1-.5,9.1-.5,9.1-.5,9.1-.5,9.1-.6,1.7,3.1,1.5,2,.3,1.5-.2,1.5-2.2,3.4-.4.3,2.1-3.2.2-1.5-.3-1.5-1.5-2-1.7-3.1-9.1.6-9.1.5ZM1144.1,748l-.3,6.4-1.5,3.7h0s1.4-3.5,1.4-3.5l.3-6.4.7-2.8h0s-.7,2.6-.7,2.6ZM1146.9,743.8h0s0-1.6,0-1.6h0s0,1.6,0,1.6ZM1146.2,694.5l2.3-4.5,1.6-1.7,1.1-1.7.4-.3-1,1.5-1.5,1.7-2.3,4.5,5.4-.4,5.4-.4,5.4-.5,5.9-.5-.5.5-6,.5-5.4.5-5.4.4-5.4.4ZM1171.3,687.7l-1.6,3.1-.3,1.2v.7l.9,1.6v.9l-.5.6-1.1.4s-.8.5-.9.5v.7s0,.3,0,.3v.8l.2.7-.5.9-3.6,2.5-1.4,3,.8,3.5-1.1,3.7-3,3.8-1.1,4.1.8,4.4-1.4,3.7-3.6,3s-.9,1.4-1.1,1.8h-.4v1.3l.4,1v.2c-.1,0-.5-1-.5-1v-1.4l1.2-1.8,3.6-3,1.4-3.7-.8-4.4,1.1-4.1,3-3.8,1.1-3.7-.8-3.5,1.4-3,3.6-2.5.5-.9s-.2-.7-.3-.7v-.8s0-.3,0-.3v-.7l.8-.5,1.1-.4.4-.6v-.9l-.7-1.6v-.6h0l.2-1.2,1.7-3.1v-2.6l-1.5-2,.6-1.1.8-.4h.2s-.5.2-.5.2l-.6,1.1,1.4,2v2.6ZM1173.6,674.6l-.3,2.2-1.5,1-.2,1.2,1.1,1.3v.6l-.3.5h-.4c0,0,.2-.3.2-.3v-.6l-1-1.3.2-1.2,1.5-1,.3-2.2s-.8-3-.9-3v-.5s0-.2,0-.5c0,.1,0,.2,0,.2v.5l2.3-.2h0c0,.1-1.8.3-1.8.3l.7,3ZM1179.3,666.7l-1.4,1.1-1.5,3.7h-.1s-.6.4-.6.4h0c0,0,.3-.3.3-.3l1.5-3.7,1.4-1.1.7-.2h0s-.3.1-.3.1ZM1179.6,650.4h-.3l-1.7-.8-2.2-2.6-2.7-4.3-.8-3.5,1.1-2.7-.2-2.8-1.5-2.8-.9-2.8-.2-2.8-3.5-3.9-6.8-5.1-4.9-3.1-3.1-1.1-3.7-2.6-4.3-4-2.3-3.1-.4-2.2,1.5-6.1,4.4-13.4s.5-1.6.6-1.6v-.6l-.3-.5-.5-.5-2.3-1.4-4.3-1-3.7-.5h.3c0-.1,4,.4,4,.4l4.3,1,2.3,1.4.5.5s.2.5,0,.5v.6l-.5,1.6-4.4,13.4-1.5,6.1.4,2.2,2.3,3.1,4.3,4,3.7,2.6,3.1,1.1,4.9,3.1,6.8,5.1,3.5,3.9.2,2.8.9,2.8,1.5,2.8.2,2.8-1.1,2.7.8,3.5,2.7,4.3,2.2,2.6,1.5.7v.2ZM1185.9,658.1l-.6,3.9-1.2,3.8-1.6,1.4h-.3c0,0,1.4-1.3,1.4-1.3l1.3-3.8.5-3.9v-4.1l-1.3-3.2-2.5-2.3s-1-.6-1.4-.8c0,0,.1-.1.1-.2h.3l1.6,1,2.4,2.2,1.3,3.2v4.1ZM1216.6,626.1l-.5-1.3.5,1.3h0ZM1217.7,615.7h0s0,0,0,0l.4-.3h.1s-.4.4-.4.4ZM1219.5,594.8h.1c0-.1,1.4-.1,1.4-.1h0c0,.1-1.4.1-1.4.1ZM1221.8,612.8l-.2,1.5-.7,1h-.2s.7-.9.7-.9l.2-1.5-.3-1.9.4-.5h.2c0,0-.4.4-.4.4l.3,1.9ZM1231,612l-.8.7h0s.5-.5.5-.5l.3-1.6-.2-2.4.3-.4h0c0,0,0,.2,0,.2l.2,2.4-.3,1.6ZM1251.3,606.4l-2.2,2.3-1.3,2.8-.7.4.3-.2,1.3-2.8,2.2-2.3,2.6-1.6-2.2,1.4ZM1466.7,798l.4.5-2.4-1.1-.3-.4,2.3,1ZM1457.5,694.3s0,0,.1,0v.6c0,0,0-.1-.1-.1v-.6ZM1456,871.6l2,.2,6.9,1.4h-.5s-7.6-1.5-7.6-1.5h-.8c0,0,0,0,0,0ZM1453.7,779.1l.4.6-3.6-1.4-1.2-.9,4.4,1.7ZM1447,883.3l.2,1.3,1.2,2,.6,2.4.6,1.1,1.2.5h-1.2l-1.2-.5-.6-1.1-.6-2.4-1.2-2-.2-1.2h1.2ZM1442.3,770.3l.6.6-1-.4-.4-.5.8.3ZM1436.2,763.1l.3.3-6.7-4v-.2c-.1,0,6.4,3.9,6.4,3.9ZM1558.7,522.6l-.4.7h0c0-.1-.3-2.9-.3-2.9l.7,2.3ZM1555.9,515.3l.3.3-1.6,2.7.7.2,1.7.5.9.9h0l-.9-.9-1.7-.5-.7-.2h-.4c0-.1,1.7-3,1.7-3ZM1518.4,508.2l2.7,1.4,6.1,3.2,3.7,1.9v.3c0,0-4.1-2.1-4.1-2.1l-6.1-3.2-2.7-1.4-4.3-2.3v-.3c.1,0,4.7,2.5,4.7,2.5ZM1515.5,495.7h.3s-3.7,2.4-3.7,2.4l-.6.2,4-2.6ZM1507.9,502.5l.2-1.9.9-1.3.7-.2-.9,1.2-.2,1.9-.9,1.1h-.5c0,.1.7-.8.7-.8ZM1505.2,528.9h1c-.1.2-.2.3-.2.3h-1c.1-.1.2-.3.2-.3ZM1501.4,534.3l-3.8.7-1.1,1.3h0c0-.1,1.3-1.6,1.3-1.6l3.8-.7-.2.3ZM1496.8,504.1l.3-1.8.5-.7h.6l-.4.5-.3,1.8-3.9,5.6h-.6c0-.1,3.8-5.4,3.8-5.4ZM1492.5,550v.2c0,0-1.9,1.4-1.9,1.4l-2.9.3-3.7-.8-.9-1.6-1.1-.9-1.5-.5-1.2.4v-.2c0,0,1.4-.4,1.4-.4l1.5.5,1.1.9.9,1.6,3.7.8,2.9-.4,1.7-1.3ZM1482,518.6l1.9-1.4,5.5-7.8.8-.2-5.5,7.8-1.9,1.4-3.4,3.7v-.6c0,0,2.6-2.9,2.6-2.9ZM1432.7,508.8l.9-7.3,2.3-11.7.8-7.5-.6-3.2-1-2.6-1.4-1.9.4-1.7.2-.2-.3,1.5,1.4,1.9,1,2.6.6,3.2-.8,7.5-2.3,11.7-.9,7.3.4,2.9-2.1,4.2-.2.3,2-4.1-.4-2.9ZM1415.9,526.4h.2c0-.1-1.3,2.5-1.3,2.5l-.2.2,1.3-2.7ZM1409.7,536.6l.6-3.5,1.1-1.9h0s-.9,1.5-.9,1.5l-.6,3.5-.8,2.1-.2.2.7-1.9ZM1408.4,539.1l.2,1.5,1.4,2.7v1h-.4v-.6l-1.3-2.7-.2-1.7.3-.2ZM1407.6,545.6h.1c-.3.4-.8,1.4-.8,1.5h-.1l.8-1.5ZM1398.2,550.9l2.1-5.2.3-.3-2.1,5.1-.8,3.3.8,2.1.7,3.1-.5,1.4h-.2c0,0,.4-1,.4-1l-.7-3.1-.8-2.1.8-3.3ZM1396,563.4l.9-1.9h.1c0,0-.7,1.5-.7,1.5l-.4,3-.3.3.4-2.9ZM1362.8,647.8h.2s.2-.2.2-.3h.2c0,0-.1.1-.1.2h-.2s-.2.2-.2.3h-.2s0,0,0,0c0,0,.1-.1.1-.2ZM1362.4,648.1h0s0,0,0,.1h0s0,0,0-.1ZM1362,648.4h0s0,0,0,.1h0s0,0,0-.1ZM1358.9,696.8l3.8-4.6,1.8-1.3,2.8-1.2,6.8-1.9,6.9-5,4.8-4.5,4.1-1.7,1.1-1.5.5-1.4v.2s-.7,1.9-.7,1.9l-1.1,1.6-4.1,1.6-4.8,4.5-6.9,5-6.8,1.9-2.8,1.2-1.8,1.3-3.8,4.5.2-.6ZM1351.3,704.6l.9-.6,3.4-.5,2-1.3.7-3-.8,3.7-2.1,1.3-3.4.5-.9.6s0,0,0,.2l.3-.9ZM1301.4,445.1l.3,2.4,10-1.6,10-1.7,10-1.7,9.8-1.7h0c0,0-10,1.9-10,1.9l-10,1.7-10,1.7-9.9,1.6v-.3s-.4,0-.4,0l-.3-2.1h.6ZM1314.9,560.1l-1.5-.4-.4-.8s.7-1.2.6-1.2v-1.4l-1-1.7.5-1.8.4-.3h0c0,.1-.5,1.9-.5,1.9,0,0,1,1.7,1.1,1.7v1.4l-.7,1.2.4.8,1.5.3s.7,1.2.6,1.2v2l-.3.2v-1.9l-.7-1.2ZM1315,563.8l-2,1.6h0c.5-.3,1.4-1.1,2.1-1.6ZM1297,569.2h.2s-.9,1.7-.9,1.7l1,3.4-.8,2.8h-.2c0,.1.7-2.5.7-2.5l-1-3.4,1-2ZM1291.1,585.5l.9-3.2,1.7-2.7h0s-1.5,2.4-1.5,2.4l-.8,3.2-1.7,2.1h0s1.5-1.8,1.5-1.8ZM1284,596.8l1.1-5.2,1.8-3.1h.2c0,0-1.7,2.8-1.7,2.8l-1.1,5.2-1.4,3.3-.3.2,1.4-3.2ZM1269.2,594.7h.3c0,0,.3.6.3.6l-.3.6h-.2s.2-.4.2-.4l-.3-.5v-.3ZM1267.2,596.5h.1s-.6.7-.6.7l.4,1.3-.3,1-.3.2.3-1-.4-1.3.8-.9ZM1264.4,605.9s.6-2,.5-2v-2.1l.5-1.4.3-.2c0,0-.4,1.4-.3,1.4v2.1l-.7,2-1.4,1.9h-.1s1.2-1.7,1.2-1.7ZM1352.9,889.8l-.3-1.5-3.6-6.3-1.8-3-11.3,1.4-11.3,1.3-11.3,1.3-11.3,1.2-11.3,1.2-11.3,1.1-11.3,1.1-10.8,1.1v-.6s11.3-1.1,11.3-1.1l11.3-1.1,11.3-1.1,11.3-1.2,11.3-1.2,11.3-1.3,11.3-1.3,11.3-1.4-2.7-4.4-1.8-7.1v-11.4l-.7-2.5-2.7-5.5-.5-4.2,1.2-7.1.6-4,1.2-2.4,2-2.1v-1.5l.7.5v1.6l-2,2.1-1.2,2.4-.6,4-1.2,7.1.5,4.2,2.7,5.5.8,2.5v11.4l1.7,7.1,2.7,4.4,1.8,3,3.6,6.3.3,1.4h-1.2ZM1371.5,713.1l-10,1.5-10,1.4-10.8,1.2-10.8,1.2-10.8,1.2-10.8,1.1,1.5,5,1.5,5,1.5,5,1.5,5,1.5,5,1.5,5,1.5,5,1.5,5,1.5,5,1.5,5,1.5,5,1.5,5,1.5,5,1.5,5,1.5,5,1.5,5,1.1,2.2,1.1,3.7,6.2,10.7,2,4.6-.2,2,.8,1.5-.8-.5-.8-1.6.2-2-2-4.6-6.2-10.7-1.1-3.7-1.1-2.2-1.5-5-1.5-5-1.5-5-1.5-5-1.5-5-1.5-5-1.5-5-1.5-5-1.5-5-1.5-5-1.5-5-1.5-5-1.5-5-1.5-5-1.5-5-1.5-5h0s10.7-1.1,10.7-1.1l10.8-1.2,10.8-1.2s8.8-1,10.6-1.2v.7l10-1.4,10-1.5,10-1.5,9.2-1.5v.2c0,0-8.1,1.2-8.1,1.2l-10,1.5ZM1385.3,723v-.2s5.6,2.8,5.6,2.8l1.3.9-6.9-3.5ZM1402,730.5h-2.7l-2.8-1-1.3-.9,2.8,1.1h2.7l1.8.9v.2c.1,0-.5-.3-.5-.3ZM1414.9,747.1h0c0,0,7.7,5.1,7.7,5.1l.2.2-7.9-5.3ZM1424.8,649.5l-1.3.7-1.6,1.6-3.5,8.1-1.5.9-3-1.5-3.5,1.3-2.2,1.7-3,4.1-1.2,1.4-1,.6h-.8l-.5-.5-.6-1.7-.5-.6-1.1.2-1.7.9-1.6,1.5-1.5,2.4-2.5.2-.4.5v-.6c0,0,.5-.6.5-.6l2.5-.2,1.6-2.4,1.6-1.5,1.7-.9,1.1-.2.5.6.6,1.7.5.5h.8l1-.6,1.2-1.4,3-4.1,2.2-1.7,3.5-1.3,3,1.5,1.5-.9,3.5-8.1,1.7-1.6,1.3-.7,2-.4v.6c0,0-2.3.5-2.3.5ZM1447.8,606.2l-.8.5-3.6.9-3.7,1.9-1.6.3-4.4-2.2-1.9,2.4-2,1.3-2.2,2.3-.8.2-2.4-.2-3.2-1.5-2.6-.7-1.7-1-1.4-1.4-1.2-2.4-1.3-1.5.2-1.5-.4-1.2-10.6,11.6-5,4.4-4.9,3.6-.4.5-.7,3.3-2.8,3.2-1.6,3.2-4.5,3.1-3,3.8-8.1,4.5-4.7,1.8-2.5,2h-.5c0,0,0,0,0,0l2.9-2.3,4.7-1.8,8.1-4.5,3-3.8,4.5-3.1,1.6-3.2,2.8-3.2.7-3.3.4-.5,4.9-3.6,5-4.4,10.6-11.6-4.6-.5-6.3-3.8-4.5-5.1-1.5-2.5-1.6-1.6-.6-1.7-4.1-4.2-1.2-1.9-.3-1.3.7-2.6v-1.2l-1.2-5.9-.5-.6h.4c0,0,.4.5.4.5l1.2,5.9v1.2l-.7,2.6.3,1.3,1.2,1.9,4.1,4.1.6,1.8,1.6,1.6,1.5,2.5,4.5,5.1,6.3,3.8,4.6.6.5,1.2-.2,1.5,1.3,1.5,1.2,2.4,1.4,1.4,1.7,1,2.6.7,3.2,1.5,2.4.2.8-.2,2.2-2.3,2-1.3,1.9-2.4,4.4,2.2,1.6-.3,3.6-1.9,3.6-.9.8-.5,1-1.2h0c0,0-1.1,1.5-1.1,1.5ZM1453.3,601.4l-1.6.3-1.8-.6-.7.2-.4.3v-.2c0,0,.7-.4.7-.4l.7-.2,1.8.6,1.6-.2s1.7-1,3.3-2l-3.6,2.2ZM1461.2,598.7s-1.1-1.1-1.1-1.2h-.4c.1,0,.2-.1.2-.1h.5l1.1,1.1-.3.2ZM1589.5,389.6l-3.8-.7-1.5-1.9-2.8-1.5-4.1.9-4.1.9-4.1.9-4.1.9-4.1.9-4.1.9-4.1.9-4.1.9-4.1.9-4.1.9-4.1.9-4.1.9-4.1.9-4.1.9-4.1.9-4.1.8-4.1.8-4.1.8-4.1.8-4.1.8-4.1.8-4.1.8-4.1.8-4.1.8-4.1.8-4.1.8-4.1.8-4.1.8-4.1.8-4.1.7-4.1.7-4.1.7v-.3c0,0,4-.7,4-.7l4.1-.7,4.1-.7,4.1-.8,4.1-.8,4.1-.8,4.1-.8,4.1-.8,4.1-.8,4.1-.8,4.1-.8,4.1-.8,4.1-.8,4.1-.8,4.1-.8,4.1-.8,4.1-.8,4.1-.8,4.1-.9,4.1-.9,4.1-.9,4.1-.9,4.1-.9,4.1-.9,4.1-.9,4.1-.9,4.1-.9,4.1-.9,4.1-.9,4.1-.9,4.1-.9,4.1-.9,2.8,1.5,1.5,1.9,3.8.7,1,.7v.2s-.9-.7-.9-.7ZM1657.1,366.3h-.2c0,0,0-.4,0-.4h.2c0,0,0,.4,0,.4ZM1621.4,540.9l.4-1.4s1.1-4.8,1.2-4.8v-4.9l-.7,2.6-1.2,7.3-.5,1.6h0c0,0-2.4,7.5-2.4,7.5l1.3-1,1.9-6.8h0ZM1789,207.5l-.9-.5-2.8.2-.9-2.2.3-2-1.9-3.6-1.4-1.7-.2-1.2h-1.4c0,0-2.4,0-2.4,0l-.4.7-.3.9-.5.8-1.7-.3-1.4-1.1-1.9-1s-.9-.9-1-.9v-1.4l.2-1.4-.2-1.5-1.3-1.5-.9-.7-.8-.9-.2-1.1.7-.8.6-.9-.2-1.5s-1-1.3-1-1.4h-1.7l-1.1.6-1.9.3-2-.4-1.5-.7-1.1-.3-.7.2-1-.3-.8-.9-.5-1.7v-1.1l.2-1-.3-1-.4-.6-.2-.5s0-.7-.2-.7v-1.5l-.8-.9-1.2-3.5-2.2-6.5-1.7-5-2.1-6.3-1.5-4.6-2.1-6.4-2-6.1-1.9-5.7-4.5-2.2-5.6-2.8-4.6-1.6-2.1.3s-1.2.8-1.3.8v1.3l-2.4,2-4.6,2.8-3.7,3.3-1.6.6h-1.4l-2.1-.5-1.7-1.1-.4-.8h1.2c0,0-.8-1.8-.8-1.8l-.7-3.6h-2.8c0,.1-2.8.1-2.8.1l-.9,2.9-.9,2.5-1.7,5.3-2.4,7.4-1.3,4.1-2.4,7.2-2.1,6.3.8,5.6.7,5.3-1.9,4.8-.8,4.1.3,4.2.4,3.8.8,3.1s1,1.4,1.1,1.4v1.4l-.6,1.8-1.3,3.2.4,2.6-.9,1.6-2.9,3.5-1.9,4.5.4,2.1.9,1.6.4,1-.4.9-1.2.3-1.2.6-.6,1.8.6,2.2-.3,1.8-.8.6-1.1-.9s-1.4-1.4-1.4-1.3h-1.1l-1.4,1.6-.5.8,1.3,3.8,1.4,4.3,1.4,4.3,1.4,4.3,1.4,4.3,1.4,4.3,1.4,4.3,1.4,4.3,1.4,4.3,1.4,4.3,1.4,4.3,1.4,4.3,1.4,4.3,1.4,4.3,1.4,4.3,1.4,4.3.7,2.9,1.1,2.6,1.7,2.1,3.6,2.8,1.3,2.8,3.3,3,.8-1.9,1.1-1.4,1.1-9.4,3.1-6.5,2.8-7-1.3-.9-1.1-.3,1.5-4.4,2.5-3.6,2.5-1.6.2,1.5.3,1.2,1.3-.8,1.2-1.3,1.3.9,1.2.4v-1.4l-1-2.3-.3-1.8.8.3.7,1.5h1l-.3-4.3.9-1.9,1,1.6,1.1,2.6.9-.5-.2-4,.7.7,1.3,2.4,1-.6.7-2.4,2-2.5,3.5-.4,1.9-2.8,1.2-2.9-.7-3,.9-7.8-1.2-3.3,2.6-3,.5-2.9.8-1.1s.6,2.4.5,2.4v2.4l.6.2,1-.7.9.2-1.6,3.1v1.8l2.4-.9,3.5.3,1.6,1.2h1.2c0,0,0-1.8,0-1.8l-1.1-2.9.4-2.9v-2.7l1.4,1.2,1.5.5,1.2-1.6.7-1.6.8-.6,1.3-.4s1.4,0,1.4.2h1.1l1.3,1.8,1.7,1.8,1-1,.6-1v-2h1.7l.4-5.4,1.2-.8,2,.2,2.1-.5,1.3-1,.3-3,2.6-1.3,2.1-2.4,5-.7,3.7-7.7-.4-.8ZM1759.1,234.5l-1.9-.2-1,1.4-.9,3.1.8,2.7.9.5,2.3.4v-.8l-.7-2,1.9-.2,1.3-1.2-.5-1.2-2.2-2.5ZM1751.4,247.2h0c0,0,0,0,0,0h0ZM1761.8,238.2h.1c0,0-.1,0-.1,0h0ZM1749.3,245.4s-.4.4-.5.4v.7s.6,1.9.6,1.8h1.2l.8-1.1-1.4-1.4-.7-.4ZM1295.4,258.6v.8l.4.9,1.6,1.4.4-.3h0c0,.1,0-.5,0-.5l-.2-1-.6-.8-1-.6s-.6,0-.7,0ZM1291.7,279.9s-.3.4-.3.3h-3.7c0-.1,0,.6,0,.6l2.4,1.8,1.4.6.8-.2.6-.5.3-.8-.3-.9-1.2-.9ZM1307.7,272l2.7.2,4-.5,1.9-.9.5-1.4-.4-.9h0c0,0-.8-.2-.8-.2l-1.7-2.1-.9-.7h-2.2l-.4.5.7.9v.5l-.8.9-1.5,1.3-1.2.4-.9-.5h-.5v1.2l.3.5,1.3.8ZM1260.1,285.5l-.8,1.6-.5,3.4v1.9l.8.4.9-.3h0l1.1-1,.3-1.6-.7-3.5.2-.4-1.4-.5ZM1168.1,237.1l1.3,1.2s4,.5,4.1.5v-.6l-.2-.3-.6-.3.9-1.7.4.6v1.8l-.7,1.4-.7,1v1.2l.9,1.4,1-.4,1-2.3,3.1-3.8-.2-.8.4-1.4v-.2c0,0,5.5-5,5.5-5l1-1.5-.3-.5s-1.2-.6-1.1-.6v-.3l6.3-1.3,1.3-1-1.6-1.2-2.4-.5-3.2.3-3.2.8-5.6,2.6-1.9,1.5-4.3,5.2-1.2,2.4v1.8ZM1294.5,256.3l.7.9.8.5s.9,0,.8,0v-.9h0s-1.1-1.8-1.1-1.8l-.3-1.9.5-2-.3-1.1-1.1-.3-.9.4-1.4,2.2,1.3,1.6,1,2.4ZM1150.2,208.4l-.7,1.3.2.8,1.1.4,2-.6,3-1.5s1.1-.7,1.2-.7v-.3h-.9v-.8h0c0,0,1.2-.6,1.2-.6l7.5-5s.7-1.3.6-1.3v-.6l.3-1,2.5-2.5-.4-.3-2.4.9-4.4,2.6-10.3,7-1.2,1.1-.2.5h.9v.6ZM1249.9,312.2h-1.6l-.2.4.8,1.7.7.5h.8l.3-.6h0l-.2-1.2-.6-.8ZM1282.4,282.1h-.4s0,0,0,0h0s.3,0,.3,0ZM1219.9,922.4l.4.8,2,.6,3.2.6.4-.5-.6-.5-5.4-1ZM1634.6,634.6l-1.3-1.9.3,1.3,2.2,6.3.6,3.7.3,8.3-4.5,3.4.5.3,4.1-2.1h0c0,.1.7-1.8.7-1.8v-7l-.8-4.6-2.1-5.9ZM1628.4,630.2l-.3-1-.7-1.1-2.5-.9,3.1,3.9.3-.9h0ZM1621.1,616.4l-6.1-12-1,.2h0c0,.1,5,10.6,5,10.6l4.1,6,6.8,8.1,2,1.7-1.3-2.2-9.5-12.4ZM1623.6,661.8h.7l5-4-2.3,1.1-3.4,2.9ZM1612,679.5l-1.9,5.6.7-.6h0s3.4-7.4,3.4-7.4l3.7-6.5-1.4,1.3-4.5,7.6ZM1629.6,657.7h0c0,0-.3.1-.3.1h.3ZM1606.4,683.4h-1.7l.5.5,2,.5,1.4.2.7-.3h0s-2.8-1-2.8-.9ZM1637.2,474l.4,1.1,2.1-6.8h0l.2-2.8-2.6,8.5ZM1538.9,300.3h0l.8-.9v-.5l-1.2.3-.7.7v.5l.3.4.8-.5ZM1631.2,429.6l-2.2,2.4-.5,4.1,1.4-.5h0c0,0,1.3-1.2,1.3-1.2l1.4-2.2v-1.2s-.4-1.3-.4-1.4h-1ZM1687.1,400.2l-1.8-1-.9.4-2.8,1.7-3.1,3-1.1,1.9-1.4,1.2-2,.3,1.4-3.1h-.3s1.8-2.7,1.8-2.7l3.4-5.7-2.6,1.9-4,5.2-2.1,2-5.9,2.4-6,1.8-2.2.9-2,1.6-2.7.9h-3l-1,.4-.9.8-1.3.6-2.6.7-.9.8s-.7,1.2-.6,1.2v1.8l-1.6-.9-1.5,1.9-3.2,2.6-1.9,3.2-.7,1.9-.4,2,1.1,2.1,2.4-1.3,1.1-2.5,1.5-.6s.9.4,1,.4v.8l-2.4,2.8,3.8-1.9,4.3-1.4,10-5.2,1.2.2,1-.4,11.6-8.2,2.5-1.2,3.2-2.3,3.3-3,2.5-1.4,11.2-10-2.8,1.5-2.6,1.9ZM1537.1,312.7h0c0-.1.5-1.4.5-1.4v-.4l-.8.4s-.3.7-.2.7v.9l.4-.2ZM1703,372.5l-.5.2v2.3l.8,1.8.6-.9-.3-2.3-.6-1.1ZM1705.3,366.2h0s.2.2.2.2l-.2-.2ZM1705.9,368.2l-.8.9s-.3.8-.4.8v2.6l.3,2.2-.4,1.7,1.7-.3,1.1-1.5h0l-1.5-6.4ZM1614.1,543.7l-4.6,1.7-.8,2.1v-.2c0,0-.8,5.7-.8,5.7l-1.7,3.1-1.8,6.1-.8,9.3.5,5.5.9,2,2.1,2,1.3-6.3.2-5.4,1-2.2,1.7-2.2,2-1.2,1.2-1.2-.9-2.8,3.3-17.1-2.8,1.1ZM1658.5,335.9h-.3c0,0,.2.3.2.3v-.3ZM242.1,77h0s0,0,0,0h0ZM238.5,62.8l.5-.5-.8-.2v.5l.3.2ZM238.6,78.6l.2-2.2.5.3.8,1.8h.8l1.2-.5v-1l-2.5-2.3h-.6l-1.9.6s-1,.9-.9.9v1.1l2,2,.4-.7ZM243.8,94l.5-1-.5-1.8-.6-1.1-.6-.3-1.5,1-2.3,2.3-1.1,1.5v.6l.7,2.4.7.9.9.5.2,1-.8,2.9v1.1l.5,1.7,1.6.9.6.9.3,1.5.5.7h.8l.6-.5.5-1.8-2.5-4.8-1.2,2,.3-5.6-.3.2v-1.9l-.5-.7-1.7-1.2.3-.5,4.6-.9ZM238.2,62h-.2.2c0,0,0,0,0,0ZM237.3,118.2v-.4l-.7-.8-.3.2-.7,1.1-.6,1.8.2,1,1.2,1.3.4-.7h-.1c0,.1.7-3.5.6-3.5ZM237.7,86.5l.5-.3v.2l.4-.8-.6-2.3.4-1.9-.4-.3-.9.3-1.2,1.9v1.2l.6,1.1,1.2.9ZM235.6,131.7l1.2-.4.4-.9h0l-.7-2.4-.2-2h-.5l-1.3,2.5-.8,2.5,1.5-.9.2.2-.3,1.1.5.3ZM222.6,131.2l-1,.6-.2,1.1s.4,1.9.4,2h.4l.5-.7h0l.2-.4-.3-2.6ZM230.7,80.7l1,1.1,2.6,1.7-.3-1.5v-1.5s-1.4-3.7-1.4-3.8h-1.3l-.4.7s-.3,2.5-.2,2.5v.8ZM1118.3,245l-.4-.3-.7.3s-.5.8-.6.8v1.3l.4.3.9-.7h0c0,0,.4-.9.4-.9v-.8ZM1108.2,257.8h.7l1.6-.7h0c0,0,.9-.8.9-.8v-.6l.6-.6,1.7-1.2-.2-.5h-.7l-3.6,2.5-.8,1-.2.9ZM1115,249.9l-.2-.3-.9.3-2,.9v.6l2,.2.9-.3h0c0,0,.2-1.4.2-1.4ZM1223.5,304.4h-1.4l-.4-.4-.6,2.4.7.8h1.6l.8-.5v-1.7l-.2-.6s-.5-.1-.5,0ZM1220.5,312.2l.5-.6v-.2c0,0,0-1.4,0-1.4l-.6-.8-1.3-.2-1,1.1-.7,2.3-1.1,1.5-1.5.8-.9,1.6-.4,2.4-.8,2.2s-2.1,3.4-2.2,3.4v.9l.3,1.2.6,1.5.9,1,1.2.4,1-.4,2.3-3.8.2-.8-.4-.3.2-1.4.8-2.4.7-1.2h.5l.5-.5.5-1-.2-.9-.8-.8v-.3h.8l.2-.9-.4-1.9.3-.8.9.3ZM1110.2,251.2h0c0-.1-.2-.6-.2-.6,0,0-.7-.8-.7-.9h-.5l-.3.6.2.6,1.1.6.4-.3Z"/>
      <rect class="st1" x="6.8" y="12.6" width="1132.6" height="1163.3"/>
      <rect class="st0" x="6.8" y="12.6" width="1562.1" height="1163.3"/>
    </g>
  </g>
  <g id="elements">
    <g id="markers">
      <circle id="PA" class="st4" cx="1692" cy="404.5" r="58.5">
        <!--  <animate attributeType="CSS" attributeName="opacity" from="0" to="1" dur="10s" repeatCount="indefinite" />-->
      </circle>
      <circle id="TX_3" class="st4" cx="811.8" cy="809.7" r="58.5">
         <!-- <animate attributeType="CSS" attributeName="opacity" from="0" to="1" dur="10s" repeatCount="indefinite" />-->
      </circle>
      <circle id="TX_2" class="st4" cx="869.9" cy="832" r="44.1">
         <!-- <animate attributeType="CSS" attributeName="opacity" from="0" to="1" dur="10s" repeatCount="indefinite" /> -->
      </circle>
      <circle id="TX_1" class="st4" cx="766.2" cy="911" r="31.2">
         <!-- <animate attributeType="CSS" attributeName="opacity" from="0" to="1" dur="10s" repeatCount="indefinite" /> -->
      </circle>
    </g>
    <g id="strokes">
      <g id="PA_stroke" class="st2">
        <path class="st5" d="M1692,349c30.6,0,55.5,24.9,55.5,55.5s-24.9,55.5-55.5,55.5-55.5-24.9-55.5-55.5,24.9-55.5,55.5-55.5M1692,346c-32.3,0-58.5,26.2-58.5,58.5s26.2,58.5,58.5,58.5,58.5-26.2,58.5-58.5-26.2-58.5-58.5-58.5h0Z"/>
      </g>
      <g id="TX_3_stroke" class="st2">
        <path class="st5" d="M811.8,754.2c30.6,0,55.5,24.9,55.5,55.5s-24.9,55.5-55.5,55.5-55.5-24.9-55.5-55.5,24.9-55.5,55.5-55.5M811.8,751.2c-32.3,0-58.5,26.2-58.5,58.5s26.2,58.5,58.5,58.5,58.5-26.2,58.5-58.5-26.2-58.5-58.5-58.5h0Z"/>
      </g>
      <g id="TX_2_stroke" class="st2">
        <path class="st5" d="M869.9,791c22.6,0,41.1,18.4,41.1,41.1s-18.4,41.1-41.1,41.1-41.1-18.4-41.1-41.1,18.4-41.1,41.1-41.1M869.9,788c-24.3,0-44.1,19.7-44.1,44.1s19.7,44.1,44.1,44.1,44.1-19.7,44.1-44.1-19.7-44.1-44.1-44.1h0Z"/>
      </g>
      <g id="TX_1_stroke" class="st2">
        <path class="st5" d="M766.2,882.8c15.6,0,28.2,12.7,28.2,28.2s-12.7,28.2-28.2,28.2-28.2-12.7-28.2-28.2,12.7-28.2,28.2-28.2M766.2,879.8c-17.2,0-31.2,14-31.2,31.2s14,31.2,31.2,31.2,31.2-14,31.2-31.2-14-31.2-31.2-31.2h0Z"/>
      </g>
    </g>
  </g>
</svg>